<?xml version="1.0" standalone="no"?>
<!DOCTYPE svg PUBLIC "-//W3C//DTD SVG 20010904//EN"
 "http://www.w3.org/TR/2001/REC-SVG-20010904/DTD/svg10.dtd">
<svg version="1.0" xmlns="http://www.w3.org/2000/svg"
 width="261.000000pt" height="324.000000pt" viewBox="0 0 261.000000 324.000000"
 preserveAspectRatio="xMidYMid meet">
<g transform="translate(0.000000,324.000000) scale(0.100000,-0.100000)"
fill="#ecb213" stroke="none">
<path d="M1276 3204 c-18 -18 -21 -40 -6 -49 8 -5 7 -11 0 -20 -7 -8 -9 -19
-5 -25 4 -6 -5 -36 -20 -66 -24 -48 -30 -55 -53 -52 -21 2 -28 10 -32 32 -6
37 -32 55 -54 37 -20 -17 -20 -35 0 -56 15 -14 15 -18 0 -40 -9 -14 -19 -25
-22 -25 -17 0 -64 37 -64 50 0 37 -51 54 -69 23 -10 -19 3 -53 21 -53 23 0 88
-115 88 -157 0 -25 3 -24 -135 -48 -125 -22 -296 -68 -455 -122 -215 -74 -199
-63 -202 -134 l-3 -62 -76 -29 -76 -29 -7 -427 c-9 -584 3 -675 124 -917 76
-151 136 -233 271 -366 177 -176 380 -318 681 -478 l116 -62 141 76 c460 246
754 502 915 797 51 94 110 262 125 358 7 39 11 259 11 541 l0 477 -75 27 c-42
16 -78 26 -80 23 -3 -2 26 -15 64 -28 l69 -23 1 -441 c1 -281 -2 -470 -9 -521
-14 -99 -52 -219 -97 -308 -18 -37 -31 -73 -27 -80 4 -7 4 -9 -1 -5 -4 4 -37
-34 -73 -85 -104 -146 -296 -329 -477 -456 -61 -43 -98 -55 -55 -19 15 13 18
19 8 15 -10 -3 -20 -2 -23 4 -4 5 -3 9 2 8 20 -3 34 2 28 11 -3 6 1 10 10 10
9 0 13 5 10 10 -3 6 1 10 10 10 9 0 27 11 41 25 14 14 29 25 34 25 4 0 10 6
13 13 3 9 7 9 17 0 10 -9 18 -8 36 4 13 8 21 19 18 24 -3 5 1 9 8 9 8 0 7 6
-5 17 -16 16 -18 16 -39 -5 -12 -12 -17 -22 -10 -22 6 0 12 -5 12 -11 0 -8 -5
-8 -15 1 -12 10 -23 6 -59 -24 -25 -20 -91 -65 -148 -100 -57 -36 -111 -72
-120 -80 -10 -9 -20 -16 -23 -16 -25 0 -27 -3 -7 -10 27 -11 38 -9 34 6 -1 7
3 16 9 20 8 5 10 2 5 -7 -4 -8 -1 -6 6 3 13 15 15 15 26 0 10 -15 11 -15 5 2
-8 24 19 42 30 18 6 -14 7 -13 4 3 -3 14 3 24 19 32 23 10 23 10 6 -16 l-16
-26 21 18 c13 12 23 14 27 8 4 -6 -29 -31 -73 -57 -45 -26 -78 -50 -76 -55 7
-10 35 0 35 12 0 5 3 8 8 7 4 -1 17 3 30 10 12 7 27 10 32 7 6 -3 7 1 4 9 -3
9 -1 16 5 16 7 0 25 10 41 22 23 17 33 19 42 10 9 -9 8 -12 -5 -12 -9 0 -17
-5 -17 -10 0 -6 -6 -10 -13 -8 -8 2 -28 -12 -46 -29 -18 -18 -35 -32 -39 -31
-4 1 -18 -4 -32 -12 -14 -8 -31 -15 -39 -16 -8 -2 -17 -6 -20 -11 -21 -30
-105 -60 -116 -42 -6 9 15 13 44 10 8 -2 10 2 5 10 -4 8 -3 10 4 5 7 -4 12 -2
12 4 0 6 5 8 12 4 6 -4 8 -3 4 4 -3 6 6 13 25 17 20 5 28 10 21 17 -6 6 -49
-10 -122 -47 -110 -55 -136 -62 -109 -28 12 14 12 16 0 8 -10 -5 -12 -4 -7 3
4 7 18 9 32 6 26 -7 58 12 48 28 -4 6 -10 5 -14 -3 -11 -16 -38 -20 -47 -7 -3
7 -1 8 5 4 7 -4 12 -4 12 1 0 4 11 13 24 19 18 8 25 8 33 -4 7 -12 13 -13 29
-3 18 11 18 12 -3 6 -18 -5 -21 -2 -18 14 4 20 2 20 -28 7 -88 -37 -88 -38
-87 -75 1 -20 2 -51 1 -70 -1 -32 -2 -33 -19 -18 -10 10 -22 14 -27 10 -4 -5
-4 -2 0 6 6 11 4 13 -9 8 -10 -4 -15 -3 -11 3 3 6 1 10 -6 10 -10 0 -10 3 -2
11 8 8 16 8 31 -2 11 -8 20 -18 20 -22 1 -21 12 -18 11 4 0 21 -19 33 -138 91
-130 64 -205 109 -157 93 19 -6 19 -5 1 15 -13 15 -21 17 -31 9 -10 -8 -32 1
-89 37 -42 27 -79 52 -81 56 -11 18 16 6 75 -32 34 -22 59 -35 55 -29 -4 7 -2
10 7 7 8 -3 13 -11 11 -17 -1 -6 5 -11 15 -11 14 0 14 2 -2 20 -24 26 -11 26
15 0 12 -12 25 -18 29 -15 5 2 11 -2 15 -10 3 -9 12 -12 23 -9 17 5 17 5 1 -9
-19 -15 -25 -32 -7 -22 6 4 16 0 22 -8 17 -20 45 -28 53 -15 4 7 3 8 -4 4 -7
-4 -12 -2 -12 3 0 15 6 14 35 -5 14 -9 25 -24 25 -34 0 -22 35 -36 53 -22 18
14 46 11 40 -5 -3 -7 -1 -13 5 -13 6 0 13 6 15 13 4 9 6 9 6 0 2 -19 -17 -25
-41 -12 -21 11 -22 11 -9 -4 7 -10 21 -17 30 -17 9 0 21 -4 26 -9 6 -6 10 0
11 18 1 26 -8 32 -139 97 -77 38 -187 99 -244 137 -58 37 -109 65 -114 62 -17
-11 -9 -27 11 -22 23 6 37 -10 22 -25 -6 -6 -12 -6 -16 1 -4 6 -12 11 -17 11
-6 0 -7 -4 -4 -10 9 -15 -2 -12 -30 6 -16 10 -25 12 -25 5 0 -6 11 -16 25 -23
13 -6 23 -14 20 -18 -2 -3 21 -20 51 -36 29 -16 54 -33 54 -38 0 -5 3 -7 6 -3
4 3 21 -5 39 -18 17 -14 35 -22 38 -18 4 3 7 1 7 -6 0 -7 14 -17 31 -23 22 -7
29 -15 24 -27 -5 -12 -3 -13 6 -4 11 11 42 2 59 -18 8 -9 43 -22 65 -25 10 -1
21 -7 23 -13 2 -6 9 -8 15 -4 6 4 8 0 4 -9 -4 -12 0 -14 16 -10 20 5 20 4 8
-11 -16 -20 -16 -20 -33 -4 -14 13 -59 35 -69 33 -4 0 -16 8 -28 18 -12 11
-21 15 -21 10 0 -5 -4 -3 -9 4 -4 7 -17 15 -27 16 -10 2 -18 9 -16 16 2 7 -3
10 -12 7 -8 -3 -22 3 -32 14 -9 10 -23 19 -30 19 -7 0 -21 10 -31 23 -10 12
-25 22 -33 22 -8 -1 -27 10 -43 24 -15 13 -27 22 -27 18 0 -4 -8 1 -18 11 -38
36 -70 60 -75 56 -2 -2 -10 3 -18 13 -8 9 -9 14 -4 11 6 -4 16 -3 23 1 8 4 -6
21 -41 47 -74 56 -221 198 -279 271 -28 36 -54 60 -62 57 -7 -3 -19 3 -27 13
-13 16 -12 17 4 4 32 -25 29 -3 -8 50 -43 62 -97 173 -125 255 -44 128 -50
199 -50 686 l-1 462 73 28 c40 15 74 28 75 28 2 0 -2 -9 -9 -19 -7 -11 -15
-18 -19 -15 -10 6 -69 -17 -69 -27 0 -5 5 -9 10 -9 6 0 10 5 10 10 0 6 8 10
18 10 14 0 15 -2 2 -10 -23 -15 -2 -12 29 4 26 14 27 14 26 -7 -1 -14 -12 -24
-36 -32 l-34 -12 0 -439 c1 -416 2 -444 23 -526 53 -212 138 -361 305 -535
184 -190 342 -304 603 -435 l162 -81 165 86 c90 46 202 110 248 140 309 206
532 457 623 700 53 142 58 189 63 653 4 394 3 432 -12 438 -9 3 -22 3 -27 -1
-7 -4 -8 -1 -3 7 6 10 4 12 -8 7 -17 -6 -32 19 -17 28 8 5 8 26 0 55 -1 3 -2
36 -3 74 l-2 69 -115 44 c-181 70 -419 133 -632 168 -36 6 -37 7 -31 38 10 53
42 110 81 144 31 27 35 35 26 50 -22 35 -74 23 -74 -16 0 -9 -14 -25 -32 -35
-31 -19 -31 -19 -50 4 -17 21 -17 25 -3 40 19 21 19 44 1 59 -22 18 -56 -3
-56 -35 0 -28 -25 -42 -49 -27 -25 15 -62 86 -57 107 3 11 1 25 -5 32 -7 8 -7
14 1 19 17 10 11 44 -9 55 -25 13 -27 13 -45 -6z m42 -6 c19 -19 14 -25 -15
-22 -16 1 -30 2 -32 3 -6 2 21 31 28 31 4 0 12 -5 19 -12z m-3 -68 c3 -5 -3
-10 -15 -10 -12 0 -18 5 -15 10 3 6 10 10 15 10 5 0 12 -4 15 -10z m27 -92
c38 -73 61 -82 104 -44 22 19 26 28 16 34 -10 7 -10 11 3 22 12 10 19 10 28 1
8 -8 9 -14 1 -19 -17 -11 -56 -91 -49 -102 9 -14 32 -12 38 3 4 9 6 9 6 0 1
-17 -17 -26 -37 -17 -30 13 -46 15 -122 16 -130 1 -239 -17 -219 -36 2 -2 40
2 84 9 44 7 107 11 140 8 87 -6 181 -26 177 -38 -2 -5 -9 -8 -15 -6 -56 18
-111 22 -223 18 -72 -2 -138 -8 -145 -13 -8 -5 -18 -9 -24 -10 -5 -1 -18 -5
-27 -9 -24 -10 -23 7 1 24 18 14 18 15 -12 38 -18 13 -40 26 -49 29 -10 4 -18
10 -18 15 0 14 5 12 57 -21 l48 -31 11 26 c5 14 14 22 19 18 4 -5 5 4 1 20 -7
30 4 36 24 12 7 -8 23 -15 36 -15 19 0 29 10 46 45 12 24 26 41 31 38 6 -3 7
-1 4 5 -10 15 3 42 19 42 7 0 28 -28 46 -62z m-208 16 c8 -3 12 -12 10 -19 -7
-17 -34 -8 -34 11 0 16 2 16 24 8z m-128 -45 c3 -6 -2 -18 -12 -27 -17 -16
-17 -16 -4 2 14 17 13 18 -8 12 -16 -6 -22 -3 -22 8 0 18 35 22 46 5z m634 2
c0 -5 -6 -11 -12 -14 -18 -6 -39 3 -32 14 7 12 44 12 44 0z m-40 -47 c0 -3
-13 -23 -29 -43 -16 -20 -30 -45 -33 -56 -2 -13 -6 -16 -11 -9 -4 7 4 28 18
48 33 49 32 56 -4 22 -16 -16 -35 -26 -41 -24 -6 2 10 18 37 35 48 32 63 39
63 27z m-133 -19 c0 -8 -4 -12 -9 -9 -5 3 -6 10 -3 15 9 13 12 11 12 -6z m-80
-92 c5 -12 7 -12 14 -1 7 10 9 9 9 -3 0 -13 -11 -17 -46 -17 -36 -1 -45 2 -40
13 6 18 -15 20 -31 4 -22 -22 28 -49 89 -49 64 -1 131 -15 136 -30 2 -5 7 -8
11 -6 7 5 134 -13 201 -28 159 -34 339 -87 486 -143 l91 -34 2 -490 c2 -490
-4 -673 -21 -634 -5 14 -6 7 -3 -20 4 -31 3 -36 -5 -25 -9 12 -10 7 -6 -20 3
-19 3 -29 0 -21 -8 18 -46 -78 -39 -97 3 -8 0 -10 -7 -6 -8 5 -9 2 -5 -10 4
-10 3 -15 -3 -11 -6 4 -9 -4 -7 -17 1 -14 -3 -22 -11 -20 -7 1 -12 -5 -10 -15
2 -11 -2 -17 -10 -15 -7 1 -12 -5 -10 -15 2 -11 -2 -17 -11 -15 -8 2 -11 -3
-8 -12 4 -9 1 -15 -6 -13 -7 1 -12 -7 -12 -18 0 -11 -5 -20 -12 -20 -20 0 -25
-12 -12 -33 12 -19 14 -19 26 -4 11 15 12 15 9 -4 -3 -13 1 -21 10 -21 8 0 15
4 15 9 1 4 3 13 4 18 1 6 3 13 4 18 1 4 6 0 12 -8 9 -13 10 -12 5 3 -6 20 9
23 17 3 4 -9 -2 -17 -13 -21 -11 -3 -19 -9 -19 -13 3 -21 -3 -31 -14 -26 -9 3
-13 -3 -13 -17 1 -12 -6 -24 -14 -27 -12 -4 -13 -2 -3 9 8 10 9 19 1 29 -8 12
-9 12 -4 -2 3 -10 1 -20 -4 -23 -5 -3 -7 -12 -4 -20 6 -15 -81 -115 -100 -115
-6 0 -4 5 4 11 13 9 13 10 -1 6 -9 -3 -20 -2 -25 3 -5 5 -14 -2 -21 -15 -8
-18 -8 -27 -1 -32 6 -3 8 -1 5 4 -4 6 -1 16 7 22 11 9 15 9 18 -1 6 -16 -61
-83 -83 -83 -10 0 -21 -4 -26 -9 -5 -5 -3 -6 5 -2 21 12 13 -10 -10 -30 -22
-19 -22 -19 -8 1 8 11 -8 -3 -36 -30 -27 -28 -67 -59 -87 -70 -20 -11 -37 -23
-37 -27 0 -5 -5 -8 -12 -8 -6 0 -23 -10 -36 -22 -14 -13 -22 -18 -19 -12 3 6
0 11 -7 11 -8 0 -12 -5 -10 -11 2 -6 -6 -16 -19 -22 -25 -11 -50 -8 -42 6 7
11 -22 7 -32 -5 -4 -4 -3 -5 3 -2 7 4 17 0 24 -8 11 -14 7 -19 -12 -16 -5 0
-8 -4 -8 -10 0 -8 -4 -8 -14 0 -11 9 -16 9 -22 0 -4 -8 -3 -9 4 -5 7 4 12 3
12 -2 0 -14 -99 -64 -115 -58 -8 3 -17 0 -21 -6 -5 -7 -2 -8 7 -3 12 8 12 6 0
-8 -10 -12 -18 -14 -32 -7 -14 8 -17 7 -13 -3 6 -16 -22 -31 -38 -20 -6 3 -8
1 -4 -5 14 -22 -41 -16 -96 11 -32 15 -58 30 -58 33 0 3 5 2 12 -2 7 -5 8 -3
3 5 -5 8 -11 9 -17 3 -16 -16 -71 16 -63 37 5 12 4 13 -6 4 -9 -9 -20 -8 -48
8 -53 29 -75 43 -83 54 -4 6 -8 6 -8 2 0 -15 -44 22 -47 40 -17 80 7 97 50 36
15 -21 27 -34 27 -29 0 5 -7 17 -16 27 -15 17 -15 18 14 7 17 -7 28 -16 25
-22 -4 -5 -1 -6 7 -1 10 6 12 4 6 -10 -5 -14 -3 -15 6 -7 9 7 17 6 26 -4 12
-13 8 -18 -12 -15 -5 1 -5 -4 0 -11 6 -7 9 -22 9 -34 -1 -12 4 -21 12 -21 9 0
10 4 3 11 -23 23 -8 28 18 5 15 -13 21 -17 15 -9 -17 18 -17 31 0 28 6 -2 11
3 9 11 -2 11 0 12 11 3 8 -7 17 -9 20 -6 4 4 5 -2 3 -13 -4 -17 0 -20 25 -17
17 2 29 -1 29 -8 0 -6 3 -8 7 -5 3 4 13 1 21 -6 19 -15 112 -19 112 -4 0 6 3
7 6 4 4 -4 19 2 34 13 15 11 38 21 50 23 12 2 25 9 29 16 5 7 21 11 37 9 20
-2 28 1 26 11 -2 8 3 11 12 8 9 -4 15 -3 15 1 -3 19 2 26 10 13 5 -8 16 -16
25 -17 13 -2 13 1 -1 24 -9 15 -13 24 -8 20 4 -4 14 -3 22 4 11 9 18 7 31 -7
14 -15 14 -17 2 -13 -18 6 -26 -27 -9 -37 5 -3 6 1 3 9 -6 15 6 21 31 16 6 -1
0 9 -12 22 -18 19 -19 25 -8 36 19 17 28 15 21 -4 -3 -9 -2 -12 5 -9 6 4 8 12
6 19 -2 6 14 24 36 39 30 22 38 25 33 11 -4 -9 12 3 34 27 23 24 39 38 35 32
-3 -7 -2 -13 4 -13 5 0 13 9 16 20 3 11 11 20 17 20 6 0 6 -6 -2 -15 -12 -14
-9 -18 8 -12 4 1 6 6 4 11 -2 5 5 6 15 2 17 -6 17 -5 1 8 -10 7 -18 16 -18 20
0 12 23 6 37 -11 13 -16 13 -16 3 5 -11 23 -6 42 11 42 6 0 7 -5 3 -12 -4 -7
-3 -8 4 -4 6 4 8 14 5 24 -6 15 -5 15 10 3 16 -12 17 -12 9 10 -9 24 -39 35
-35 13 1 -7 -7 -20 -17 -29 -11 -10 -20 -15 -20 -11 0 4 -9 2 -20 -4 -11 -6
-18 -15 -15 -21 4 -5 3 -8 -2 -7 -14 4 -54 -23 -48 -33 4 -5 3 -9 -2 -8 -20 3
-33 -2 -31 -14 3 -12 -3 -13 -37 -2 -18 6 -18 5 -2 -5 20 -13 14 -32 -9 -23
-9 3 -14 0 -12 -8 2 -9 -4 -13 -15 -11 -10 2 -16 -3 -15 -10 2 -8 -4 -12 -16
-10 -12 2 -16 -1 -10 -9 5 -8 3 -10 -6 -4 -8 5 -18 2 -26 -9 -7 -10 -15 -17
-18 -17 -20 3 -26 0 -21 -8 3 -5 0 -13 -6 -17 -8 -4 -9 -3 -5 4 4 7 3 12 -3
12 -5 0 -14 -7 -19 -16 -5 -9 -12 -15 -15 -15 -20 3 -28 0 -23 -7 6 -10 -45
-9 -62 2 -7 4 -10 12 -7 17 11 17 -17 9 -66 -18 -36 -21 -49 -34 -49 -50 0
-22 0 -22 35 -5 19 9 35 21 35 25 0 5 -4 5 -10 2 -5 -3 -10 -2 -10 2 0 5 9 14
19 20 17 11 19 10 16 -7 -3 -13 1 -17 11 -13 7 3 12 9 9 13 -3 5 4 6 15 3 11
-3 23 -10 27 -16 3 -5 1 -7 -5 -4 -15 10 -43 -3 -35 -16 3 -6 1 -7 -5 -3 -6 4
-33 -4 -59 -18 -36 -18 -53 -22 -66 -15 -9 6 -22 7 -29 3 -6 -4 -8 -3 -5 3 8
13 -41 36 -55 27 -6 -4 -8 -3 -5 3 8 13 -41 36 -55 27 -7 -5 -8 -2 -3 6 6 10
4 12 -9 7 -9 -4 -15 -3 -12 2 7 11 -22 23 -35 15 -5 -3 -12 2 -15 10 -7 18
-93 68 -104 61 -4 -3 -15 7 -25 21 -9 14 -22 23 -30 20 -20 -7 -27 5 -12 22
10 13 9 14 -10 3 -29 -15 -29 -16 4 -49 15 -15 20 -18 13 -7 -13 19 -13 19 3
4 19 -17 13 -54 -7 -42 -6 4 -5 -1 3 -10 7 -9 10 -17 7 -17 -4 0 -2 -9 4 -20
6 -12 7 -20 1 -20 -5 0 -11 3 -13 8 -1 4 -16 14 -33 23 -16 9 -29 22 -27 29 2
8 -3 10 -14 6 -11 -4 -15 -2 -11 8 4 10 1 13 -9 9 -20 -7 -18 14 4 26 9 6 12
11 5 11 -6 0 -15 -5 -18 -10 -4 -6 -11 -7 -17 -4 -7 5 -8 2 -3 -7 5 -8 -9 3
-30 24 -22 20 -48 40 -59 43 -17 6 -16 8 10 31 26 21 26 22 4 10 -14 -7 -30
-13 -35 -13 -6 1 -37 28 -69 60 -33 32 -54 56 -48 52 6 -3 14 -2 17 4 4 6 3
10 -2 9 -22 -4 -43 2 -43 13 0 6 3 8 7 5 9 -9 34 13 27 24 -3 5 -11 9 -17 9
-7 0 -6 -4 3 -10 8 -5 13 -10 10 -11 -3 0 -13 -2 -22 -4 -9 -2 -27 8 -39 22
-15 15 -18 23 -9 21 8 -2 5 0 -7 6 -23 10 -47 52 -38 66 3 5 0 12 -6 16 -8 4
-9 3 -5 -4 14 -23 -9 -11 -27 13 -17 23 -17 25 3 35 11 6 19 14 17 18 -1 4 3
7 8 7 6 0 9 -4 7 -8 -1 -5 2 -6 8 -2 5 3 10 -1 10 -9 0 -9 5 -16 11 -16 8 0 8
-4 0 -14 -9 -11 -8 -14 5 -12 9 0 19 -5 21 -12 3 -7 -1 -10 -10 -6 -8 3 -17 1
-20 -3 -3 -5 6 -9 21 -9 16 1 26 -4 25 -11 -4 -19 26 -4 38 20 9 16 13 17 21
6 7 -11 8 -9 4 6 -6 19 -5 19 7 3 8 -10 17 -15 20 -11 4 3 7 -1 7 -10 0 -11
-5 -14 -18 -10 -13 5 -11 0 7 -20 14 -15 29 -27 35 -27 6 0 3 7 -7 14 -21 16
-22 23 -3 23 8 0 14 -5 13 -11 -1 -6 3 -10 9 -9 6 1 11 -4 11 -12 0 -8 -4 -12
-9 -9 -4 3 -8 1 -8 -5 0 -19 19 -21 29 -3 8 15 4 25 -20 48 -17 16 -49 53 -71
81 -22 29 -44 50 -49 48 -10 -7 0 -35 11 -32 4 1 8 -1 9 -5 3 -26 -1 -28 -19
-7 -10 13 -19 19 -20 13 0 -15 35 -46 43 -37 4 3 7 2 7 -4 0 -6 -6 -16 -14
-22 -17 -15 -30 -1 -35 39 0 6 -7 9 -13 8 -8 -2 -12 5 -10 16 2 10 -1 15 -7
12 -14 -9 -61 63 -54 82 4 10 2 13 -5 8 -8 -5 -10 -1 -5 10 4 12 3 15 -5 10
-8 -5 -10 -1 -5 10 4 12 3 15 -5 10 -8 -5 -10 -1 -5 10 4 12 3 15 -5 10 -8 -5
-10 -1 -5 10 4 11 2 15 -4 11 -14 -9 -23 15 -16 45 4 19 3 20 -6 8 -9 -12 -10
-9 -5 15 4 23 3 27 -5 15 -9 -12 -10 -9 -5 14 5 23 4 27 -6 21 -10 -6 -12 -4
-7 9 8 20 -2 98 -12 92 -3 -2 -6 240 -6 539 l0 543 130 47 c169 61 347 110
513 140 73 14 142 30 154 36 11 6 53 13 94 16 59 5 74 9 74 22 0 22 -17 47
-26 38 -4 -3 -1 -13 6 -22 11 -13 10 -14 -5 -9 -11 5 -16 3 -12 -2 3 -5 -3
-10 -13 -10 -14 0 -16 4 -9 18 6 11 5 19 -3 25 -16 10 69 19 135 14 31 -2 50
-8 54 -18z m79 -1 c1 -7 0 -8 -3 -2 -2 5 -12 10 -21 10 -13 0 -12 -2 3 -14 14
-10 25 -11 38 -4 26 14 47 3 46 -24 0 -22 -1 -22 -9 -3 -7 17 -9 17 -9 3 -1
-10 -5 -18 -11 -18 -5 0 -7 7 -4 15 8 20 -3 19 -23 -1 -15 -14 -18 -14 -36 4
-12 12 -17 27 -13 37 7 19 38 17 42 -3z m-293 -18 c4 -24 2 -25 -28 -21 -18 3
-37 7 -43 11 -5 3 -13 -4 -17 -17 -6 -20 -8 -20 -12 -3 -6 22 14 38 39 32 10
-2 17 -1 16 3 -2 16 3 21 21 21 12 0 20 -9 24 -26z m207 -14 c0 -5 -15 -9 -32
-9 l-33 1 30 8 c17 4 31 8 33 9 1 0 2 -3 2 -9z m-1099 -527 c8 -10 9 -14 2
-10 -9 6 -12 -87 -12 -394 -1 -220 -4 -405 -7 -411 -4 -7 -2 -8 4 -4 11 6 17
-12 13 -36 0 -4 6 -28 14 -52 8 -24 17 -57 19 -73 1 -16 9 -40 17 -53 7 -14
12 -28 11 -32 -1 -3 5 -11 13 -18 7 -6 11 -19 8 -27 -5 -12 -3 -14 7 -8 9 5
11 4 6 -3 -4 -7 -3 -12 1 -12 13 0 33 -59 22 -66 -5 -3 -7 -9 -4 -14 3 -4 -3
-11 -12 -14 -18 -7 -35 12 -28 32 3 7 0 10 -5 7 -6 -4 -13 7 -16 24 -4 17 -10
28 -15 25 -5 -3 -6 3 -2 12 4 12 3 15 -5 10 -7 -4 -12 -5 -12 -2 0 2 -3 13 -6
23 -5 15 -4 15 5 3 8 -11 11 -11 11 -2 0 7 -7 15 -15 18 -13 5 -13 9 -3 22 7
9 8 13 2 9 -7 -4 -16 10 -24 36 -14 42 -15 48 -27 102 -3 17 -8 228 -9 470 -4
436 -2 454 27 455 4 0 13 -8 20 -17z m2092 -348 c4 -339 -4 -499 -25 -539 -9
-16 -8 -18 8 -12 15 6 17 5 7 -5 -7 -7 -13 -25 -13 -39 0 -15 -3 -30 -7 -34
-5 -4 -8 -11 -8 -14 -1 -4 -5 -18 -9 -31 -7 -21 -10 -22 -18 -8 -5 10 -6 23
-2 30 5 9 4 9 -6 0 -11 -10 -10 -17 4 -37 13 -21 14 -26 3 -26 -9 0 -13 -9
-12 -24 2 -13 -2 -29 -7 -37 -8 -11 -9 -11 -5 2 3 9 2 22 -3 29 -5 7 -8 -3 -8
-26 1 -40 -24 -99 -35 -87 -4 3 -7 -4 -7 -16 0 -12 -4 -19 -10 -16 -6 4 -8 10
-6 14 3 3 -4 7 -14 7 -10 0 -17 -3 -14 -7 2 -4 -3 -12 -11 -19 -15 -13 -39 -4
-29 11 3 5 10 6 16 3 6 -4 8 -2 4 4 -3 6 -1 17 6 24 17 18 36 48 47 73 5 12
16 27 25 34 9 7 14 17 11 21 -3 5 -1 11 5 15 6 4 8 11 5 16 -4 5 -2 9 3 9 6 0
9 6 9 13 0 6 5 27 12 45 12 30 14 32 27 15 13 -16 13 -15 3 9 -7 15 -15 25
-19 23 -4 -3 0 14 9 38 13 36 16 104 18 452 2 226 6 420 8 433 4 17 10 20 20
14 13 -7 16 -61 18 -357z m-2086 83 c-3 -7 -5 -2 -5 12 0 14 2 19 5 13 2 -7 2
-19 0 -25z m0 -170 c-3 -8 -6 -5 -6 6 -1 11 2 17 5 13 3 -3 4 -12 1 -19z m0
-85 c-3 -10 -5 -2 -5 17 0 19 2 27 5 18 2 -10 2 -26 0 -35z m0 -220 c-3 -10
-5 -4 -5 12 0 17 2 24 5 18 2 -7 2 -21 0 -30z m1964 -280 c-12 -20 -14 -14 -5
12 4 9 9 14 11 11 3 -2 0 -13 -6 -23z m39 -337 c0 -2 -8 -10 -17 -17 -16 -13
-17 -12 -4 4 13 16 21 21 21 13z m-25 -46 c-3 -5 -12 -10 -18 -10 -7 0 -6 4 3
10 19 12 23 12 15 0z m-1874 -62 c15 -28 5 -21 -21 15 -15 20 -17 27 -6 18 9
-8 22 -23 27 -33z m1832 9 c-15 -18 -29 -30 -31 -26 -4 8 40 59 51 59 5 0 -4
-15 -20 -33z m-1797 -52 c9 -8 11 -15 6 -15 -5 0 -15 7 -22 15 -7 8 -9 15 -6
15 4 0 14 -7 22 -15z m1751 -10 c-7 -17 -27 -21 -27 -4 0 5 5 7 10 4 6 -3 10
2 10 11 0 10 3 15 6 11 4 -3 4 -13 1 -22z m-42 -44 c-3 -6 -11 -11 -16 -11 -5
0 -4 6 3 14 14 16 24 13 13 -3z m-1635 -23 c0 -12 -6 -9 -26 13 -19 22 -19 22
4 8 12 -8 22 -17 22 -21z m1554 -58 c-38 -39 -62 -56 -73 -53 -9 4 -13 3 -9
-2 8 -8 -4 -22 -42 -48 -35 -24 -45 -21 -18 7 13 13 26 21 31 19 4 -2 7 1 7 7
0 5 13 18 30 29 16 10 27 20 24 23 -3 3 9 12 25 19 17 8 31 18 31 23 0 16 32
46 42 40 5 -3 -17 -32 -48 -64z m-1526 15 c-3 -3 -9 2 -12 12 -6 14 -5 15 5 6
7 -7 10 -15 7 -18z m1399 -35 c-1 -22 -17 -28 -17 -7 0 12 9 27 16 27 2 0 2
-9 1 -20z m-1304 -34 c3 3 15 -8 28 -25 12 -17 27 -27 32 -24 6 4 7 1 2 -7 -6
-9 -15 -5 -35 18 -15 17 -30 29 -33 26 -3 -3 -10 5 -17 18 -10 20 -10 21 3 6
8 -10 17 -15 20 -12z m476 -75 c9 -15 7 -18 -12 -16 -30 3 -30 3 -15 20 17 18
16 18 27 -4z m416 9 c3 -5 1 -10 -4 -10 -6 0 -11 5 -11 10 0 6 2 10 4 10 3 0
8 -4 11 -10z m-175 -9 c0 -5 -7 -12 -16 -15 -14 -5 -15 -4 -4 9 14 17 20 19
20 6z m545 -1 c4 -6 1 -9 -6 -8 -7 2 -13 -4 -14 -12 0 -8 -5 -15 -10 -15 -6 0
-17 -6 -25 -13 -49 -41 -63 -51 -71 -46 -14 8 -11 26 4 21 6 -2 34 16 61 40
53 48 52 47 61 33z m-1026 -27 c1 4 10 3 22 -3 11 -7 18 -14 15 -17 -3 -3 2
-12 12 -20 27 -22 -8 -4 -46 24 -18 14 -29 29 -25 35 4 8 9 5 14 -8 4 -10 8
-15 8 -11z m861 -27 c0 -3 -4 -8 -10 -11 -5 -3 -10 -1 -10 4 0 6 5 11 10 11 6
0 10 -2 10 -4z m-740 -76 c0 -5 -5 -10 -11 -10 -5 0 -7 5 -4 10 3 6 8 10 11
10 2 0 4 -4 4 -10z m96 -37 c-4 -4 -11 -1 -16 7 -16 25 -11 35 7 17 9 -9 13
-20 9 -24z m115 -45 c9 -16 8 -19 -7 -16 -9 1 -20 13 -25 25 -6 17 -5 21 7 16
8 -3 19 -14 25 -25z m237 -89 c-6 -4 -16 -5 -21 -2 -5 3 -19 -5 -33 -18 -13
-12 -24 -19 -24 -15 0 4 -7 0 -16 -9 -21 -20 -29 -13 -15 14 15 28 92 62 109
48 10 -8 10 -12 0 -18z"/>
<path d="M1298 3046 c-2 -22 0 -32 7 -28 5 3 4 -1 -2 -10 -7 -8 -10 -18 -6
-21 3 -4 1 -7 -6 -7 -7 0 -10 -4 -6 -9 6 -11 55 -10 55 2 0 7 -1 12 -5 25 -1
4 -6 22 -10 40 -11 45 -22 48 -27 8z"/>
<path d="M1150 2951 c0 -5 5 -13 10 -16 6 -3 10 -2 10 4 0 5 -4 13 -10 16 -5
3 -10 2 -10 -4z"/>
<path d="M1184 2782 c3 -6 -2 -8 -14 -5 -11 3 -28 2 -37 -2 -10 -5 -22 -7 -27
-6 -4 1 -13 -2 -20 -7 -6 -5 -36 -13 -66 -16 -86 -11 -205 -42 -192 -50 7 -4
22 -4 33 -1 14 5 19 3 15 -3 -4 -6 2 -8 15 -5 13 4 17 8 9 13 -18 11 14 20 55
15 20 -3 34 -1 31 3 -2 4 3 9 12 9 9 1 31 4 47 6 21 3 35 -2 46 -16 14 -17 17
-18 22 -3 4 9 1 16 -6 16 -8 0 -8 3 2 9 20 13 51 1 51 -20 0 -11 -6 -20 -12
-20 -7 -1 -17 -2 -23 -4 -5 -1 -27 -3 -48 -3 -22 -1 -36 -6 -32 -12 3 -6 -1
-7 -9 -4 -9 3 -24 3 -33 -1 -17 -7 -26 -9 -81 -13 -14 -1 -21 -6 -16 -13 4 -8
-3 -9 -26 -4 -19 4 -30 3 -27 -2 3 -5 -7 -7 -25 -5 -23 4 -29 2 -23 -8 5 -9 4
-11 -3 -6 -17 10 -83 -4 -75 -17 3 -6 1 -7 -6 -3 -17 11 -73 -3 -64 -17 4 -7
0 -8 -11 -4 -23 9 -68 -2 -60 -15 4 -6 -2 -7 -16 -3 -14 5 -20 3 -16 -3 4 -6
-2 -8 -16 -4 -15 4 -19 2 -13 -7 6 -10 2 -11 -15 -6 -14 5 -20 3 -16 -3 4 -6
-2 -8 -16 -4 -13 3 -19 1 -15 -5 5 -7 -1 -9 -15 -6 -15 3 -19 2 -11 -4 8 -6
-3 -9 -31 -11 -29 -1 -43 3 -43 11 0 8 15 13 40 14 23 1 46 8 56 18 15 16 15
17 -8 5 -17 -9 -26 -9 -35 0 -8 8 -7 9 7 4 12 -4 17 -2 15 7 -2 8 3 13 11 11
7 -1 19 2 26 8 9 8 17 6 29 -5 11 -11 21 -13 32 -7 11 6 13 11 5 16 -6 4 -11
2 -11 -4 0 -6 -5 -8 -10 -5 -5 3 -10 11 -10 16 0 6 4 8 8 5 5 -3 20 1 34 8 16
9 31 10 42 4 10 -6 22 -5 34 2 16 11 16 11 -2 6 -10 -4 -25 -1 -32 5 -7 6 -19
7 -26 3 -7 -5 -19 -9 -28 -9 -22 -3 -203 -66 -217 -77 -7 -5 -11 -40 -11 -91
1 -60 3 -71 7 -40 5 33 9 41 20 34 9 -6 12 -20 9 -42 -3 -19 -2 -52 2 -74 6
-31 8 -16 9 63 0 56 5 102 10 102 6 0 11 -207 13 -522 4 -506 5 -525 26 -596
89 -293 337 -544 751 -760 l135 -71 113 60 c479 251 751 543 803 863 5 33 10
279 10 546 0 428 -1 485 -15 484 -8 -1 -15 3 -15 8 0 6 -7 7 -16 4 -9 -4 -13
-2 -8 5 4 8 -1 9 -16 4 -17 -5 -21 -4 -15 6 6 9 2 11 -13 7 -12 -4 -20 -2 -17
2 7 11 -62 33 -76 24 -7 -4 -9 -3 -6 3 8 12 -50 26 -66 16 -5 -3 -7 -1 -4 4 8
13 -127 48 -144 37 -7 -4 -9 -3 -6 3 8 13 -46 25 -81 17 -22 -4 -24 -3 -12 6
12 9 7 11 -22 8 -20 -2 -34 0 -31 5 3 5 -9 6 -28 2 -22 -4 -29 -3 -21 3 17 11
-63 24 -96 15 -12 -3 -29 0 -37 7 -9 7 -25 10 -42 5 -24 -6 -25 -5 -12 11 12
16 12 17 -1 12 -11 -4 -16 0 -16 13 0 20 3 21 36 21 36 0 41 -2 34 -14 -5 -8
-2 -9 9 -5 18 7 24 -8 7 -18 -6 -4 -7 -11 -4 -17 4 -6 13 0 21 16 9 18 20 25
31 22 43 -12 133 -25 153 -21 17 4 20 2 11 -7 -15 -15 -16 -42 -2 -33 6 4 7
11 4 17 -5 8 -1 9 10 5 10 -4 31 -7 47 -7 18 0 28 -4 24 -10 -10 -16 5 -12 23
7 16 16 16 16 0 11 -9 -4 -18 -3 -20 2 -3 9 -117 34 -224 49 -37 6 -71 15 -75
22 -5 8 -55 13 -159 16 -99 3 -150 1 -146 -5z m139 -24 c-6 -7 -12 -20 -15
-28 -4 -11 -7 -10 -17 7 -9 19 -9 22 3 17 8 -3 17 -1 21 5 3 6 9 11 12 11 3 0
1 -6 -4 -12z m-90 -19 c23 -12 49 -28 58 -35 14 -13 19 -10 43 21 15 19 31 35
37 35 5 0 9 -25 9 -55 l0 -55 78 -78 c84 -84 127 -155 161 -265 42 -137 45
-347 6 -512 -20 -86 -20 -85 14 -85 22 0 32 6 37 23 5 12 7 26 5 31 -1 5 5 4
13 -4 9 -7 16 -18 16 -24 0 -7 -4 -6 -9 2 -6 11 -10 10 -15 -4 -3 -9 -4 -19
-1 -22 3 -3 5 -1 5 5 0 5 15 8 33 5 32 -4 32 -4 10 13 -22 15 -23 24 -23 129
0 199 -36 401 -92 516 -18 36 -34 69 -36 74 -3 5 1 5 9 0 8 -4 1 8 -16 27 -19
22 -33 31 -37 25 -5 -7 -8 -3 -8 8 0 17 -85 105 -102 106 -3 0 -13 13 -21 29
l-15 29 41 -3 c43 -3 227 -91 227 -109 0 -6 4 -6 11 1 8 8 20 8 41 1 16 -6 32
-8 35 -5 3 4 20 0 37 -7 17 -7 54 -17 81 -21 65 -11 58 -9 150 -38 44 -14 90
-28 103 -32 12 -4 20 -10 17 -15 -3 -5 -1 -11 5 -15 11 -7 6 -207 -5 -225 -3
-5 1 -10 9 -10 12 0 15 22 15 134 l0 135 -82 25 c-164 50 -403 106 -454 106
-2 0 -2 3 0 8 6 9 -13 26 -33 30 -30 7 -30 18 0 14 16 -2 30 -8 30 -12 0 -4
15 -6 33 -5 17 1 46 -4 62 -10 17 -7 38 -11 48 -9 9 1 17 -2 17 -7 0 -5 19 -9
43 -9 32 0 38 -3 27 -11 -12 -8 -11 -9 6 -5 11 4 42 -1 70 -10 27 -8 60 -17
74 -19 13 -2 26 -9 28 -14 2 -6 11 -11 21 -11 9 0 23 -6 30 -12 11 -11 12 -10
6 1 -6 10 -4 12 6 5 8 -5 30 -14 49 -20 26 -7 35 -15 33 -30 -1 -19 -1 -18 14
1 15 19 15 19 10 -11 -3 -17 -2 -35 2 -40 4 -5 2 -20 -5 -34 -12 -22 -14 -23
-15 -5 0 12 -3 15 -6 7 -3 -7 1 -21 9 -30 13 -14 15 -80 12 -422 -2 -376 -5
-454 -17 -520 -3 -14 -6 -32 -6 -40 -1 -13 -2 -13 -11 0 -5 8 -6 17 -2 20 10
8 13 52 3 46 -14 -9 -20 -58 -10 -85 8 -19 6 -28 -8 -40 -16 -15 -16 -15 -4 1
8 10 9 23 4 32 -6 12 -11 7 -19 -19 -9 -28 -8 -35 3 -35 11 0 11 -4 1 -23 -7
-12 -11 -26 -10 -30 1 -5 -3 -5 -9 -1 -8 5 -10 2 -6 -9 3 -9 0 -18 -9 -21 -9
-3 -12 -11 -8 -17 4 -8 3 -9 -4 -5 -7 4 -12 2 -12 -4 0 -6 -4 -8 -10 -5 -5 3
7 29 28 58 20 28 32 48 25 44 -7 -4 -26 -28 -43 -53 -23 -34 -28 -49 -20 -59
8 -9 8 -14 0 -17 -6 -2 -12 -11 -14 -21 -1 -9 -11 -23 -22 -31 -10 -8 -19 -20
-19 -28 0 -7 -11 -13 -27 -13 -18 -1 -41 -14 -68 -40 -40 -39 -58 -74 -20 -40
11 10 20 15 20 10 0 -4 9 4 20 18 11 14 20 30 20 36 0 6 8 7 17 4 11 -4 13 -8
5 -11 -7 -2 -10 -8 -6 -13 3 -5 0 -8 -8 -7 -7 2 -12 -4 -10 -12 2 -8 1 -12 -3
-8 -4 4 -24 -10 -46 -31 -21 -21 -41 -36 -44 -33 -3 3 -5 -3 -5 -14 0 -16 -2
-16 -10 -4 -6 9 -5 17 3 22 6 4 8 10 4 14 -4 5 -18 -2 -30 -15 -19 -18 -19
-21 -3 -15 14 5 17 3 14 -12 -3 -20 -78 -75 -90 -68 -5 3 -8 -2 -8 -10 0 -15
-38 -42 -52 -38 -5 1 -8 -3 -8 -10 0 -6 -3 -8 -6 -5 -4 3 -19 -6 -33 -21 -40
-40 -66 -53 -80 -39 -10 9 -12 9 -9 -2 4 -16 -59 -54 -74 -45 -7 4 -8 2 -4 -5
10 -15 -22 -27 -37 -12 -8 8 -8 11 1 11 7 0 12 5 12 10 0 6 -11 3 -24 -5 -15
-10 -27 -12 -30 -6 -4 5 20 23 51 39 32 16 74 39 93 51 42 25 51 26 43 6 -3
-9 -8 -14 -11 -11 -2 3 -25 -7 -51 -21 -49 -28 -82 -54 -43 -34 12 7 28 9 34
5 7 -5 8 -3 3 6 -6 10 -4 12 8 7 10 -4 16 -2 14 5 -2 13 52 30 67 21 6 -4 4 2
-4 12 -14 17 -13 18 3 12 9 -3 17 -2 17 3 0 6 7 10 16 10 8 0 12 4 9 10 -3 5
3 10 15 10 14 0 19 4 14 12 -5 7 -2 9 7 6 19 -7 55 17 39 27 -6 4 -18 1 -26
-6 -8 -6 -17 -9 -20 -7 -3 3 10 16 28 29 18 12 59 45 91 72 55 47 59 48 72 31
8 -11 15 -14 15 -8 0 5 -4 14 -9 20 -6 5 3 23 25 46 19 21 34 35 34 32 0 -8
69 74 112 132 21 28 51 78 67 110 56 114 60 145 61 538 0 198 -2 357 -5 354
-4 -3 -6 -160 -6 -349 0 -270 -4 -359 -16 -412 -8 -37 -19 -65 -24 -62 -5 4
-6 0 -3 -8 3 -8 -2 -19 -10 -26 -8 -7 -12 -20 -9 -29 5 -14 2 -14 -18 3 l-24
20 18 -22 c18 -21 18 -23 1 -52 -18 -30 -34 -40 -34 -22 0 6 5 13 10 16 5 3
10 12 10 18 0 7 -4 6 -10 -3 -9 -13 -10 -13 -10 0 0 13 -2 13 -9 1 -6 -9 -6
-22 0 -34 8 -14 4 -26 -18 -55 -30 -41 -70 -84 -59 -65 3 6 2 14 -3 17 -4 3
-8 -2 -7 -12 1 -22 -46 -80 -61 -75 -6 2 -14 -1 -18 -6 -3 -6 -1 -11 6 -11 7
0 -2 -11 -20 -24 -18 -14 -39 -22 -46 -20 -7 3 -16 1 -20 -5 -3 -7 0 -8 10 -5
11 5 14 2 9 -10 -4 -9 -9 -15 -11 -12 -3 3 -15 -4 -26 -15 -16 -15 -23 -16
-30 -7 -6 9 -7 8 -3 -4 3 -11 -2 -19 -17 -24 -12 -5 -25 -7 -29 -6 -4 1 -5 -5
-1 -14 4 -11 0 -15 -13 -12 -10 2 -19 -3 -20 -9 -3 -26 -5 -28 -15 -13 -9 13
-10 13 -6 0 2 -8 11 -14 21 -12 25 4 19 -4 -18 -27 -41 -26 -60 -27 -27 -2 20
16 21 19 7 24 -10 4 -14 3 -11 -3 3 -5 -3 -14 -13 -19 -26 -14 -47 6 -30 28
10 13 10 14 -2 4 -15 -14 -24 -46 -10 -38 5 3 11 2 14 -3 3 -5 -11 -14 -30
-21 -18 -7 -34 -17 -34 -22 0 -6 -6 -9 -12 -6 -18 6 -50 -12 -43 -24 4 -5 -1
-9 -10 -9 -9 0 -36 -11 -59 -25 -37 -22 -66 -26 -96 -15 -3 2 -8 2 -12 1 -5 0
-8 3 -8 9 0 5 -7 10 -16 10 -8 0 -12 4 -9 10 4 6 -1 7 -11 3 -13 -5 -15 -3 -9
7 5 9 4 11 -4 6 -6 -4 -24 0 -39 10 -15 10 -30 17 -34 16 -5 -1 -8 2 -8 8 0 5
-7 10 -15 10 -8 0 -13 6 -11 12 1 7 1 10 -1 6 -9 -15 -25 -8 -19 8 3 8 2 12
-4 9 -15 -9 -71 21 -119 63 -24 20 -47 38 -52 38 -5 1 -13 2 -18 3 -5 0 -7 10
-4 20 6 22 -26 44 -50 35 -15 -5 -31 21 -22 36 3 5 -4 7 -15 5 -11 -2 -25 4
-32 14 -7 9 -21 20 -31 24 -10 4 -23 21 -29 37 -6 17 -13 29 -16 26 -8 -8 -62
55 -56 65 3 5 0 17 -5 26 -8 13 -10 14 -11 3 0 -20 -20 1 -25 26 -1 11 -8 18
-15 16 -7 -2 -10 3 -7 11 3 8 -4 22 -14 31 -20 17 -17 42 4 30 7 -4 9 -4 5 0
-3 4 -9 6 -12 4 -10 -5 -47 63 -40 74 4 7 2 8 -5 4 -15 -9 -8 -33 31 -110 l29
-59 -22 -21 c-12 -12 -19 -16 -15 -9 3 6 2 14 -4 18 -6 4 -8 10 -5 15 3 4 -1
10 -9 13 -9 4 -12 14 -9 28 5 17 3 20 -7 14 -8 -5 -11 -4 -6 3 3 5 1 12 -5 14
-15 5 -21 56 -8 64 11 6 2 24 -12 24 -6 0 -7 -5 -3 -12 4 -7 3 -8 -4 -4 -6 4
-8 14 -5 23 4 10 2 14 -4 10 -6 -4 -8 4 -5 21 5 22 7 23 10 7 2 -11 9 -24 14
-30 8 -7 9 -4 4 8 -3 10 -6 25 -6 33 0 8 -6 14 -14 14 -8 0 -18 9 -21 20 -9
29 -9 956 0 971 5 8 4 10 -3 5 -8 -5 -12 0 -12 13 0 26 58 54 78 38 9 -7 12
-7 10 2 -4 14 70 43 77 30 3 -4 17 -3 30 3 13 6 22 15 18 21 -3 5 3 6 17 2 13
-4 20 -3 17 2 -3 5 31 17 76 27 45 10 89 21 97 25 8 4 34 7 57 5 24 -1 41 2
38 6 -5 8 115 40 148 40 10 0 15 -5 12 -10 -4 -6 -11 -8 -16 -5 -5 4 -9 -1 -9
-10 0 -10 -5 -13 -12 -9 -7 4 -8 3 -4 -4 4 -7 5 -12 3 -12 -12 0 -136 -24
-215 -41 -78 -18 -95 -19 -110 -7 -15 11 -15 11 -5 -3 11 -14 1 -19 -80 -42
-51 -14 -106 -31 -122 -38 -17 -7 -34 -13 -40 -13 -15 -1 -13 -1024 2 -1056
11 -23 12 -21 6 15 -4 22 -8 262 -10 533 -2 489 -2 492 18 492 11 0 17 5 14
10 -8 13 1 13 25 0 15 -8 18 -7 15 2 -5 12 44 29 210 70 28 7 52 15 55 18 3 3
19 6 35 8 62 5 75 7 75 14 0 4 14 6 30 4 17 -2 33 0 36 5 3 5 12 9 20 9 12 0
10 -7 -8 -29 -13 -15 -27 -26 -32 -23 -5 3 -6 0 -3 -5 10 -16 -19 -35 -43 -28
-13 4 -20 2 -20 -6 0 -7 3 -9 7 -6 3 4 12 -1 19 -11 12 -15 17 -13 62 31 l48
48 20 -22 c10 -11 19 -28 19 -37 0 -11 9 -17 22 -18 13 -1 29 -7 37 -13 12
-10 20 -5 45 30 17 23 30 43 29 44 -2 1 -31 -2 -65 -8 -59 -10 -64 -10 -88 13
-14 13 -25 26 -25 29 0 12 127 92 141 89 10 -2 15 10 17 45 2 26 5 47 8 47 3
0 24 -10 47 -21z m514 -35 c-3 -3 -12 -4 -19 -1 -8 3 -5 6 6 6 11 1 17 -2 13
-5z m-1341 -156 c3 -4 -1 -5 -10 -4 -8 1 -18 5 -22 8 -3 4 1 5 10 4 8 -1 18
-5 22 -8z m-49 -15 c0 -8 -7 -11 -14 -8 -8 3 -17 5 -19 5 -3 0 -3 4 0 8 8 14
33 10 33 -5z m243 13 c0 -2 -7 -6 -15 -10 -8 -3 -15 -1 -15 4 0 6 7 10 15 10
8 0 15 -2 15 -4z m-251 -35 c9 -6 10 -11 3 -15 -6 -4 -9 -13 -5 -21 3 -8 0
-15 -5 -15 -16 0 -24 18 -12 25 8 5 7 11 -1 21 -13 15 -2 18 20 5z m811 5 c0
-2 -13 -6 -30 -8 -16 -3 -30 -1 -30 4 0 4 14 8 30 8 17 0 30 -2 30 -4z m405
-36 c10 -11 16 -20 13 -20 -3 0 -13 9 -23 20 -10 11 -16 20 -13 20 3 0 13 -9
23 -20z m121 -488 c5 -73 -8 -220 -23 -258 -8 -21 -29 -11 -25 12 2 10 6 35 8
54 3 19 8 42 11 50 6 16 10 72 12 174 1 82 10 65 17 -32z m-1082 -821 c3 8 4
5 1 -6 -5 -22 57 -99 70 -87 5 4 5 2 2 -4 -9 -16 78 -98 94 -89 7 5 10 4 6 -2
-4 -6 9 -25 28 -42 40 -35 57 -41 30 -11 -19 21 -11 27 14 11 8 -5 11 -16 8
-24 -7 -19 18 -42 34 -31 8 4 9 3 5 -4 -9 -15 135 -109 282 -184 111 -56 114
-57 144 -42 17 9 37 12 46 8 10 -4 23 -8 29 -9 7 0 12 -5 10 -10 -1 -6 -8 -9
-14 -9 -7 1 -10 -2 -7 -7 3 -5 3 -9 0 -9 -2 0 -12 -3 -22 -7 -13 -5 -15 -3 -8
8 18 29 13 37 -16 26 -16 -6 -27 -14 -24 -18 2 -4 0 -10 -6 -14 -5 -3 -10 -1
-10 5 0 7 -6 10 -14 7 -8 -3 -16 -1 -19 6 -2 6 -6 3 -10 -7 -5 -13 -2 -16 11
-14 9 1 23 -1 29 -5 8 -5 20 0 30 13 10 11 21 20 26 20 5 0 5 -6 -1 -12 -6 -7
-12 -17 -14 -23 -1 -5 -10 -10 -18 -11 -8 -1 -19 -3 -25 -5 -5 -2 -20 2 -32 9
-13 7 -23 10 -23 6 0 -3 -7 -1 -15 6 -8 7 -15 9 -15 6 0 -4 -15 4 -33 18 -19
14 -37 23 -42 18 -5 -4 -5 -2 -2 4 4 7 0 15 -9 18 -9 3 -12 2 -8 -5 3 -6 -3
-5 -15 3 -22 14 -23 29 -1 36 7 3 10 0 6 -7 -4 -6 -5 -11 -2 -11 3 0 7 4 10 9
8 13 -59 50 -74 41 -9 -5 -9 -9 -1 -14 6 -4 11 -2 11 5 0 8 4 8 15 -1 8 -7 15
-16 15 -21 0 -13 -39 -6 -45 9 -3 7 -10 10 -15 7 -6 -4 -9 -1 -8 6 2 7 -4 13
-12 14 -19 0 -90 44 -90 55 0 5 9 8 20 7 19 -1 25 -10 20 -32 -1 -5 2 -7 6 -2
4 4 15 0 25 -9 16 -15 17 -14 12 5 -3 12 -8 20 -11 17 -2 -3 -13 6 -24 19 -11
14 -24 23 -29 19 -5 -3 -12 2 -15 10 -3 9 -11 16 -16 16 -6 0 -5 -7 2 -15 21
-25 -2 -36 -29 -14 -13 11 -21 22 -17 26 3 4 12 -2 20 -12 12 -17 13 -16 10 6
-1 13 -3 25 -3 27 -1 1 -11 -2 -22 -9 -13 -7 -24 -7 -28 -2 -3 6 -16 15 -29
22 -13 7 -20 17 -16 23 5 7 2 9 -7 6 -8 -2 -28 10 -46 29 -33 35 -32 37 5 27
14 -4 21 -12 18 -20 -3 -9 0 -11 11 -7 12 5 14 3 8 -8 -4 -8 -5 -11 -1 -7 10
9 46 -23 39 -35 -3 -5 0 -8 6 -6 23 8 16 19 -38 63 -44 37 -58 43 -77 36 -24
-9 -38 7 -43 51 0 5 -5 7 -11 4 -5 -3 -15 5 -21 19 -8 16 -17 23 -28 19 -9 -4
-13 -3 -9 2 4 4 -7 26 -24 47 -26 33 -28 39 -12 36 10 -2 18 -10 16 -17 -1 -7
2 -9 8 -6 8 5 6 13 -4 24 -9 10 -16 23 -16 30 0 7 -5 9 -10 6 -6 -4 -8 -11 -5
-16 4 -5 1 -9 -4 -9 -15 0 -14 13 2 29 10 10 16 7 33 -15 16 -19 23 -23 28
-13z"/>
<path d="M1210 2721 c5 -11 14 -22 19 -26 5 -3 12 -19 16 -35 8 -34 12 -36 36
-14 16 14 18 14 28 -4 8 -16 7 -21 -5 -26 -24 -9 -27 -7 -14 9 7 9 11 17 9 19
-2 2 -12 -6 -21 -19 -17 -23 -17 -23 5 -20 12 1 30 6 40 10 10 4 17 3 17 -5 0
-6 5 -8 10 -5 6 3 10 3 10 -2 0 -10 52 -35 58 -28 9 8 -28 36 -39 29 -8 -4 -9
-3 -5 4 4 7 2 12 -4 12 -6 0 -27 16 -46 35 -32 33 -106 85 -119 85 -3 0 -1 -9
5 -19z"/>
<path d="M1348 2673 c7 -3 16 -2 19 1 4 3 -2 6 -13 5 -11 0 -14 -3 -6 -6z"/>
<path d="M1141 2637 c-8 -10 -7 -14 2 -14 8 0 14 6 14 14 0 7 -1 13 -2 13 -2
0 -8 -6 -14 -13z"/>
<path d="M1450 2641 c0 -5 7 -12 16 -15 8 -3 12 -2 9 4 -3 6 -1 10 4 10 6 0
11 -4 11 -9 0 -5 15 -14 33 -22 17 -7 34 -16 37 -20 3 -3 25 -16 50 -29 42
-20 200 -165 200 -182 0 -13 -50 -9 -83 7 -44 21 -90 62 -78 69 6 4 17 -5 26
-18 14 -22 43 -39 67 -41 3 0 10 -3 14 -7 4 -5 14 -8 23 -8 9 1 -8 13 -37 28
-29 15 -50 31 -46 34 3 4 13 4 22 1 11 -3 8 1 -5 11 -12 9 -26 16 -30 15 -22
-4 -35 2 -30 15 6 14 -7 31 -28 38 -5 1 -8 8 -7 13 2 6 0 7 -4 3 -4 -4 -13 -3
-21 3 -20 18 -16 -5 8 -35 11 -14 25 -23 31 -20 6 4 8 1 6 -7 -3 -8 -12 -13
-19 -11 -9 2 -6 -5 6 -20 40 -47 81 -79 118 -90 29 -9 50 -27 84 -70 25 -33
43 -62 40 -65 -6 -6 -66 57 -67 70 0 5 -5 5 -12 1 -8 -5 -9 -2 -5 9 4 12 -2
21 -23 32 -38 20 -40 11 -2 -9 15 -8 21 -15 13 -16 -9 0 -3 -12 17 -31 18 -17
29 -35 26 -40 -3 -5 1 -6 9 -3 8 3 17 -2 21 -11 3 -10 12 -15 19 -12 15 5 65
-28 56 -37 -9 -10 -116 35 -158 66 -13 10 -27 15 -32 12 -5 -3 -8 -2 -7 3 2 9
-61 113 -69 113 -3 0 4 -15 14 -32 10 -18 25 -53 33 -78 16 -50 80 -120 109
-120 11 0 42 -29 77 -72 33 -40 59 -75 59 -77 0 -1 -20 -4 -43 -6 -24 -2 -47
-7 -50 -11 -4 -3 11 -4 33 -1 36 6 37 5 12 -4 -32 -12 -74 1 -102 31 -13 14
-14 20 -3 26 7 4 10 4 6 -1 -10 -10 38 -35 66 -35 17 1 15 3 -10 14 -38 17
-100 88 -114 132 -6 18 -18 35 -27 38 -12 5 -13 3 -6 -6 6 -7 20 -42 32 -78
27 -79 55 -126 79 -132 10 -3 33 -24 51 -47 18 -22 27 -39 19 -36 -7 3 -24 21
-38 40 -14 19 -30 33 -37 30 -7 -2 -21 8 -33 23 l-20 27 11 -27 c11 -25 20
-32 40 -30 12 2 42 -38 35 -46 -4 -4 -14 2 -22 12 -7 11 -16 17 -19 14 -9 -8
46 -49 56 -42 5 3 9 1 9 -5 0 -5 11 -8 24 -5 14 2 28 0 31 -6 3 -5 1 -10 -5
-10 -6 0 -9 -4 -5 -9 6 -11 -41 1 -73 18 -30 16 -72 70 -98 126 -31 65 -30 47
0 -43 31 -89 65 -152 83 -152 9 0 11 5 7 13 -6 9 -5 9 8 0 8 -7 19 -9 24 -5 4
4 2 -1 -5 -10 -7 -10 -17 -15 -22 -12 -5 3 -9 0 -9 -6 0 -6 -4 -8 -10 -5 -5 3
-10 0 -10 -8 0 -8 -6 -20 -13 -26 -10 -8 -14 -7 -14 4 0 8 5 11 11 8 6 -3 8
-3 4 2 -4 4 -3 14 3 22 9 10 7 18 -7 34 -10 11 -30 48 -46 82 -29 64 -36 62
-16 -4 6 -22 15 -39 21 -39 5 0 7 -6 4 -14 -3 -8 2 -17 11 -21 14 -5 14 -7 2
-15 -13 -8 -12 -10 2 -10 11 0 15 -5 12 -15 -4 -8 -11 -12 -18 -8 -15 10 -40
13 -31 5 4 -4 10 -7 13 -7 21 -1 31 -17 22 -35 -9 -18 -29 -19 -391 -20 -210
0 -386 -3 -392 -7 -5 -3 -13 1 -18 8 -13 21 -11 35 3 21 14 -14 218 -16 285
-3 79 15 152 86 219 213 31 60 70 195 59 206 -2 3 -6 -7 -10 -22 -3 -14 -8
-38 -11 -53 -4 -21 -7 -24 -14 -12 -7 9 -8 2 -5 -22 3 -26 0 -41 -12 -50 -14
-12 -16 -12 -11 1 3 9 0 24 -7 33 -11 15 -13 16 -18 2 -4 -8 -1 -14 5 -12 12
2 19 -37 11 -70 -3 -13 -10 -20 -16 -16 -5 3 -8 2 -5 -3 8 -12 -17 -35 -28
-26 -4 4 -4 1 0 -5 8 -15 -10 -53 -26 -53 -6 0 -5 7 3 18 11 14 10 13 -9 -2
-22 -19 -30 -32 -13 -21 5 3 12 1 15 -4 4 -5 -3 -12 -14 -16 -12 -4 -17 -11
-13 -18 5 -9 3 -9 -8 -1 -11 9 -21 7 -42 -6 -17 -11 -24 -20 -18 -24 6 -4 11
-2 11 3 0 6 5 11 10 11 21 0 9 -21 -17 -31 -38 -14 -271 -20 -280 -6 -3 5 -1
7 5 3 6 -3 13 -2 17 4 4 6 10 8 15 5 7 -5 20 17 19 32 -1 3 6 10 15 15 9 5 16
16 16 25 0 14 2 14 16 -3 15 -18 15 -18 5 2 -8 18 -4 26 26 55 20 19 34 27 30
18 -3 -9 0 -16 8 -16 10 0 11 5 4 18 -12 24 -11 32 3 23 7 -4 8 -3 4 4 -3 6 3
16 14 22 11 6 18 15 15 20 -3 4 5 6 17 3 18 -4 20 -2 8 6 -8 5 -11 13 -7 17 3
4 15 1 24 -7 16 -13 17 -12 4 3 -11 15 -11 19 3 24 9 3 16 12 16 19 0 7 7 16
16 19 8 3 12 10 9 16 -3 5 -2 17 3 26 8 14 11 14 26 -7 18 -27 20 -22 6 16 -7
17 -7 24 0 20 6 -3 11 1 11 9 2 24 4 29 21 61 27 50 45 200 25 212 -5 3 -7 14
-4 24 3 11 1 19 -4 19 -6 0 -7 -27 -3 -65 8 -81 -20 -177 -79 -268 -22 -34
-40 -67 -40 -74 0 -7 -3 -10 -7 -8 -6 4 -44 -36 -226 -244 -29 -32 -38 -36
-99 -41 -36 -3 -69 -2 -72 3 -3 4 33 47 79 95 135 140 248 298 232 324 -4 6
-2 8 4 4 6 -3 14 -1 18 5 5 9 11 7 20 -6 11 -14 10 -21 -3 -41 -11 -18 -19
-22 -28 -14 -9 8 -14 6 -19 -6 -9 -22 -9 -22 19 -20 19 1 35 18 76 86 28 47
48 74 44 60 -4 -14 -15 -38 -26 -55 -10 -16 -27 -46 -38 -65 -22 -41 -117
-151 -140 -164 -9 -5 -6 1 6 12 18 18 21 30 14 60 -1 2 -13 -11 -28 -30 -15
-18 -67 -76 -115 -130 -48 -53 -88 -99 -88 -102 0 -3 13 -6 29 -6 23 0 42 16
102 82 41 46 107 118 147 161 89 96 116 136 143 211 29 85 41 155 33 210 l-6
49 -15 -31 c-16 -34 -80 -90 -128 -114 -16 -8 -60 -23 -97 -32 -38 -10 -68
-22 -68 -27 0 -5 -6 -6 -14 -3 -7 3 -31 -2 -51 -10 -31 -13 -41 -14 -53 -4
-13 11 -14 11 -7 -2 5 -8 10 -21 10 -27 0 -7 5 -12 10 -10 6 1 9 5 8 8 -1 3 4
6 12 6 8 0 12 -4 9 -9 -3 -4 2 -5 11 -2 9 4 14 13 11 21 -5 11 -1 13 15 8 16
-5 19 -4 14 5 -5 9 -4 11 3 6 6 -4 26 1 43 9 17 9 40 15 50 12 11 -3 17 -1 14
3 -3 5 11 12 32 16 43 7 113 43 113 57 0 5 6 4 13 -2 8 -6 17 -7 22 -3 4 4 4
-4 1 -18 -6 -21 -5 -22 4 -7 12 19 4 41 -11 32 -17 -11 -9 7 15 36 19 22 25
25 30 14 3 -8 4 -21 2 -27 -3 -7 -7 -25 -10 -39 -7 -32 -30 -59 -80 -93 -32
-21 -50 -26 -104 -26 -108 0 -192 -18 -234 -51 -20 -16 -48 -34 -62 -40 -14
-7 -26 -16 -26 -20 0 -12 29 -4 50 13 10 9 20 15 22 12 3 -2 19 9 37 25 35 31
57 36 210 46 111 7 77 -7 -48 -20 -103 -11 -112 -14 -150 -47 -65 -56 -88 -65
-118 -48 -35 20 -38 33 -10 46 70 35 87 47 87 60 0 8 -4 14 -8 14 -17 0 -122
-72 -116 -81 9 -14 -9 -11 -36 8 -36 24 -40 32 -40 89 0 42 4 54 23 67 12 9
60 52 107 96 68 64 83 82 73 92 -11 11 -13 11 -13 0 0 -7 -5 -9 -12 -5 -6 4
-8 3 -5 -3 3 -5 -21 -36 -54 -68 -32 -32 -59 -54 -59 -50 0 4 -8 1 -18 -8 -10
-10 -22 -14 -26 -10 -4 4 -4 0 -1 -9 4 -9 1 -19 -6 -24 -8 -4 -10 -3 -5 4 4 7
5 12 1 12 -3 0 -11 -12 -17 -27 -13 -32 -17 -93 -5 -93 4 0 7 -11 7 -25 0 -19
11 -32 45 -54 24 -15 41 -31 38 -35 -4 -4 1 -4 12 0 19 7 19 7 2 -13 -14 -16
-14 -20 -3 -20 8 0 15 3 14 6 -2 17 5 18 40 10 75 -19 79 -19 98 2 12 13 14
19 5 17 -7 -2 -16 3 -19 11 -3 8 0 11 7 7 6 -4 21 0 33 8 15 11 18 16 8 16
-13 0 -13 2 0 10 20 13 33 13 25 0 -3 -6 1 -7 9 -4 9 3 14 10 11 14 -3 4 18 7
45 6 28 0 50 2 50 5 0 4 7 10 16 13 15 6 15 4 3 -10 -13 -16 -12 -16 9 -5 14
7 22 8 22 1 0 -5 -4 -10 -10 -10 -5 0 -10 -7 -10 -16 0 -8 -4 -13 -9 -10 -5 4
-7 -2 -4 -13 3 -10 0 -22 -6 -25 -6 -4 -9 -1 -5 7 3 8 2 17 -3 20 -4 3 -9 -6
-9 -20 -1 -13 -10 -34 -20 -45 -11 -12 -13 -18 -5 -13 10 6 12 4 7 -4 -4 -6
-17 -9 -29 -6 -12 2 -16 2 -9 -1 6 -3 12 -10 12 -15 0 -6 -4 -8 -9 -4 -5 3
-13 0 -17 -6 -4 -8 -3 -9 4 -5 7 4 12 2 12 -4 0 -7 -9 -14 -19 -17 -11 -3 -22
-14 -24 -25 -4 -13 -10 -17 -18 -12 -9 5 -10 2 -6 -10 5 -13 3 -17 -7 -13 -7
3 -23 -7 -35 -24 -17 -23 -28 -28 -48 -25 -14 3 -22 2 -18 -2 3 -4 12 -7 17
-7 6 0 13 -6 16 -13 2 -7 -2 -10 -11 -6 -8 3 -18 1 -22 -5 -4 -7 1 -8 12 -5
12 5 9 -2 -9 -20 -16 -15 -28 -32 -28 -38 0 -7 -5 -6 -14 2 -13 10 -13 8 -3
-13 6 -14 14 -25 17 -24 3 1 20 -7 39 -17 26 -14 31 -20 20 -27 -9 -5 -4 -7
16 -5 17 2 38 -3 48 -12 16 -15 17 -14 11 3 -5 13 -4 16 5 10 7 -4 41 -7 74
-6 91 2 464 0 524 -3 28 -1 49 2 47 6 -3 4 0 8 5 8 6 0 11 -5 11 -11 0 -8 4
-8 13 -1 6 5 21 6 32 2 21 -7 78 20 106 52 9 10 21 18 27 18 6 0 16 9 22 19 6
13 17 17 30 14 11 -3 17 -10 13 -16 -3 -5 -1 -7 4 -4 6 4 8 18 6 32 -4 17 0
27 11 31 9 3 16 12 16 19 0 8 5 17 12 21 6 4 8 3 4 -4 -3 -6 -1 -14 5 -18 8
-5 9 -3 4 6 -6 10 -4 12 8 7 9 -3 19 -1 23 5 4 6 3 8 -4 4 -6 -3 -20 4 -32 16
-19 21 -21 21 -14 3 7 -18 6 -18 -9 -6 -9 7 -14 17 -11 22 3 5 -1 9 -8 9 -10
0 -9 3 2 11 12 9 12 10 -4 5 -11 -4 -23 -1 -28 6 -12 20 -10 28 8 28 9 0 13
-5 9 -12 -4 -7 0 -5 8 4 8 10 17 15 20 11 4 -3 7 -1 7 6 0 7 6 11 13 8 10 -4
13 5 12 31 0 26 -5 36 -19 38 -21 3 -27 8 -30 26 -3 18 -25 55 -26 43 0 -11
-20 15 -20 28 0 12 28 8 32 -5 3 -7 7 -5 11 6 4 10 3 15 -3 11 -6 -3 -10 -1
-10 4 0 6 6 11 14 11 22 0 29 19 15 37 -8 9 -14 23 -14 31 0 8 -6 16 -13 18
-7 1 -8 0 -2 -3 5 -2 10 -9 10 -15 0 -6 -9 -3 -20 7 -22 20 -18 37 8 29 14 -5
14 -4 3 4 -8 6 -20 8 -27 5 -7 -2 -18 6 -25 19 -6 13 -17 26 -22 30 -17 11
-18 46 -1 52 13 5 14 9 4 21 -9 11 -10 19 -1 28 9 11 5 13 -19 12 -23 -1 -32
4 -44 29 -9 17 -16 24 -16 16 -1 -9 -5 -7 -10 7 -11 27 -90 81 -130 89 -16 4
-30 10 -30 15 0 11 -94 59 -115 59 -8 0 -15 -4 -15 -9z m250 -185 c0 -3 -4 -8
-10 -11 -5 -3 -10 -1 -10 4 0 6 5 11 10 11 6 0 10 -2 10 -4z m-930 -120 c0 -2
-8 -10 -17 -17 -16 -13 -17 -12 -4 4 13 16 21 21 21 13z m1066 -157 c-4 7 5 6
26 -1 l33 -12 -35 -7 c-19 -4 -45 -5 -56 -3 -25 6 -84 64 -65 64 7 0 9 5 5 11
-3 6 17 -6 46 -26 29 -20 49 -32 46 -26z m-561 21 c-3 -5 -12 -10 -18 -10 -7
0 -6 4 3 10 19 12 23 12 15 0z m-26 -24 c7 -8 8 -17 3 -20 -6 -3 -12 3 -15 14
-6 24 -4 25 12 6z m-317 -111 c0 -5 -5 -11 -11 -13 -6 -2 -11 4 -11 13 0 9 5
15 11 13 6 -2 11 -8 11 -13z m164 -137 c4 -7 3 -8 -4 -4 -7 4 -12 2 -12 -5 0
-7 -3 -10 -6 -6 -6 5 3 27 11 27 2 0 7 -5 11 -12z m-141 -66 l-28 -27 24 31
c13 17 26 30 28 27 3 -2 -8 -16 -24 -31z m98 23 c-3 -9 -8 -14 -10 -11 -3 3
-2 9 2 15 9 16 15 13 8 -4z m772 -35 c7 0 18 -6 25 -14 6 -8 18 -12 27 -9 10
4 14 2 11 -7 -5 -15 -38 -23 -38 -9 0 5 -7 9 -16 9 -22 0 -42 22 -36 40 4 11
7 11 10 3 2 -7 9 -13 17 -13z m-805 -3 c0 -2 -17 -19 -37 -38 l-37 -34 30 37
c25 31 44 46 44 35z m880 -57 c0 -5 -5 -10 -11 -10 -5 0 -7 5 -4 10 3 6 8 10
11 10 2 0 4 -4 4 -10z m-563 -15 c0 -8 -4 -12 -9 -9 -5 3 -6 10 -3 15 9 13 12
11 12 -6z m-392 -54 c-3 -2 1 -11 8 -19 10 -13 9 -14 -8 -4 -47 27 -51 32 -23
30 15 -1 25 -4 23 -7z"/>
<path d="M1750 2210 c0 -5 5 -10 11 -10 5 0 7 5 4 10 -3 6 -8 10 -11 10 -2 0
-4 -4 -4 -10z"/>
<path d="M1650 2620 c-13 -8 -12 -10 3 -10 9 0 17 5 17 10 0 12 -1 12 -20 0z"/>
<path d="M1687 2619 c7 -7 15 -10 18 -7 3 3 -2 9 -12 12 -14 6 -15 5 -6 -5z"/>
<path d="M1180 2604 c-14 -7 -38 -14 -55 -15 -16 0 -38 -3 -47 -7 -15 -6 -15
-9 -2 -26 13 -18 19 -12 16 15 -1 3 12 6 29 7 20 0 27 -3 23 -11 -5 -9 -4 -9
6 0 7 6 20 9 29 6 14 -4 14 -3 1 6 -13 9 -12 11 5 12 48 3 55 5 57 14 4 15
-34 15 -62 -1z"/>
<path d="M1430 2560 c0 -5 5 -10 10 -10 6 0 10 5 10 10 0 6 -4 10 -10 10 -5 0
-10 -4 -10 -10z"/>
<path d="M1455 2541 c-3 -6 -1 -11 5 -11 6 0 8 -4 5 -10 -3 -5 -1 -10 5 -10 6
0 8 -4 5 -10 -3 -6 1 -7 10 -4 14 6 14 9 -2 28 -10 11 -19 22 -19 24 -1 2 -5
-1 -9 -7z"/>
<path d="M1034 2505 c-3 -8 -3 -18 0 -23 5 -8 -4 -22 -45 -70 -21 -25 0 -24
30 1 16 13 27 28 24 31 -4 3 1 6 11 6 11 0 16 6 14 18 -2 9 -10 16 -16 15 -15
-4 -15 10 0 25 9 9 9 12 0 12 -7 0 -15 -7 -18 -15z"/>
<path d="M996 2488 c-9 -12 -16 -20 -16 -17 0 3 -18 -11 -40 -31 -22 -20 -40
-42 -40 -47 0 -6 -15 -18 -32 -27 -21 -10 -27 -16 -15 -16 10 0 16 -4 12 -10
-3 -5 -12 -7 -19 -4 -24 9 -28 -14 -5 -26 12 -7 19 -8 15 -2 -3 5 1 15 9 22 8
7 12 16 9 21 -3 5 4 9 14 9 11 0 27 10 36 23 9 12 14 16 11 10 -3 -7 -1 -13 5
-13 7 0 10 6 7 14 -3 7 4 21 14 30 11 9 17 21 14 26 -6 10 5 13 35 11 10 0 11
1 3 5 -9 4 -10 11 -3 25 14 26 5 24 -14 -3z m-26 -42 c0 -2 -8 -10 -17 -17
-16 -13 -17 -12 -4 4 13 16 21 21 21 13z"/>
<path d="M1487 2483 c-7 -12 39 -104 47 -95 5 4 7 0 6 -8 -5 -31 0 -71 8 -66
4 2 6 -40 4 -94 -2 -54 0 -105 4 -113 13 -23 9 216 -4 240 -6 11 -9 23 -5 26
3 4 0 13 -6 21 -7 8 -8 17 -3 20 12 7 22 -16 22 -49 0 -13 5 -27 10 -30 6 -3
10 -19 10 -35 0 -16 4 -32 10 -35 5 -3 10 -16 9 -28 0 -12 3 -52 7 -89 7 -66
-11 -188 -27 -188 -4 0 -5 -9 -2 -19 3 -10 -1 -30 -8 -42 -13 -24 -15 -28 -18
-51 -2 -7 -7 -4 -12 7 -8 16 -8 15 -4 -8 4 -21 2 -27 -6 -21 -8 4 -9 3 -5 -4
4 -7 1 -12 -9 -12 -10 0 -13 -5 -9 -12 5 -8 2 -9 -10 -5 -10 4 -26 3 -35 -3
-23 -12 -33 -2 -21 21 7 12 7 20 0 24 -6 4 -10 3 -9 -2 4 -22 -2 -34 -13 -27
-10 6 -10 4 0 -7 6 -7 12 -17 12 -22 0 -4 -6 -5 -12 -1 -8 4 -10 3 -5 -2 5 -5
14 -9 20 -9 7 0 11 -8 11 -18 -1 -13 7 -10 37 14 84 66 125 154 136 287 10
133 -29 334 -74 384 -9 10 -12 18 -8 18 4 0 0 9 -10 20 -19 21 -31 25 -38 13z
m37 -32 c-2 -2 1 -10 7 -17 7 -8 6 -14 -2 -20 -7 -4 -9 -3 -5 4 3 5 2 12 -3
14 -4 1 -12 14 -16 27 -6 21 -5 22 8 10 8 -8 13 -16 11 -18z m-47 -678 c-9 -9
-20 -13 -24 -9 -4 4 -1 11 7 16 25 16 35 11 17 -7z"/>
<path d="M424 2472 c-9 -5 -8 -10 1 -19 11 -10 13 -9 12 7 -1 11 -1 20 -2 20
0 0 -5 -4 -11 -8z"/>
<path d="M1085 2459 c7 -11 35 -12 35 -1 0 4 -9 8 -20 9 -11 1 -18 -2 -15 -8z"/>
<path d="M2060 2450 c-9 -6 -10 -10 -3 -10 6 0 15 5 18 10 8 12 4 12 -15 0z"/>
<path d="M805 2411 c13 -14 17 -14 32 2 11 11 13 17 5 17 -7 0 -12 -4 -12 -10
0 -5 -5 -10 -11 -10 -5 0 -8 4 -5 8 3 5 -2 9 -10 9 -13 0 -13 -2 1 -16z"/>
<path d="M1440 2420 c0 -5 5 -10 11 -10 5 0 7 5 4 10 -3 6 -8 10 -11 10 -2 0
-4 -4 -4 -10z"/>
<path d="M1038 2388 c5 -5 16 -8 23 -6 8 3 3 7 -10 11 -17 4 -21 3 -13 -5z"/>
<path d="M1209 2353 c-13 -15 -12 -15 9 -4 23 12 28 21 13 21 -5 0 -15 -7 -22
-17z"/>
<path d="M649 2348 c14 -19 32 -15 30 5 0 8 -2 8 -6 -1 -4 -10 -8 -10 -21 0
-15 12 -16 11 -3 -4z"/>
<path d="M690 2335 c-7 -9 -10 -18 -6 -22 3 -3 6 -1 6 6 0 7 4 10 8 7 5 -3 9
1 9 9 0 19 -2 19 -17 0z"/>
<path d="M649 2293 c-10 -12 -10 -14 -1 -9 11 7 17 -6 12 -29 -1 -5 -3 -17 -5
-26 -2 -9 1 -22 7 -30 8 -11 9 -11 5 3 -3 9 -1 19 6 22 8 3 8 5 -2 5 -10 1
-10 7 4 27 10 15 12 23 4 19 -9 -6 -11 -3 -6 8 9 23 -8 30 -24 10z"/>
<path d="M1740 2288 c0 -2 9 -11 20 -21 11 -9 20 -13 20 -7 0 5 -9 14 -20 20
-11 6 -20 9 -20 8z"/>
<path d="M782 2268 c-17 -17 -15 -38 3 -38 16 0 38 34 28 44 -9 9 -18 7 -31
-6z"/>
<path d="M2171 2264 c0 -11 3 -14 6 -6 3 7 2 16 -1 19 -3 4 -6 -2 -5 -13z"/>
<path d="M1150 2260 c-8 -5 -10 -10 -5 -10 6 0 17 5 25 10 8 5 11 10 5 10 -5
0 -17 -5 -25 -10z"/>
<path d="M1224 2254 c-18 -14 -18 -14 6 -3 31 14 36 19 24 19 -6 0 -19 -7 -30
-16z"/>
<path d="M724 2215 c4 -29 14 -58 26 -70 15 -15 20 -16 20 -5 0 27 -25 99 -39
112 -11 11 -13 5 -7 -37z m24 -30 c-3 -3 -9 2 -12 12 -6 14 -5 15 5 6 7 -7 10
-15 7 -18z"/>
<path d="M827 2244 c-3 -3 -3 -13 0 -22 4 -9 2 -13 -4 -9 -6 4 -15 1 -21 -6
-8 -10 -5 -13 12 -15 19 -1 22 3 22 28 0 32 0 33 -9 24z"/>
<path d="M854 2217 c0 -16 2 -17 12 -3 13 18 29 22 18 4 -4 -7 -3 -8 5 -4 16
10 5 25 -17 23 -10 0 -18 -9 -18 -20z"/>
<path d="M788 2173 c6 -2 18 -2 25 0 6 3 1 5 -13 5 -14 0 -19 -2 -12 -5z"/>
<path d="M1201 2141 c-8 -5 -10 -14 -6 -21 6 -9 10 -8 17 4 12 21 7 28 -11 17z"/>
<path d="M432 2095 c0 -16 2 -22 5 -12 2 9 2 23 0 30 -3 6 -5 -1 -5 -18z"/>
<path d="M1711 2110 c0 -8 4 -22 9 -30 12 -18 12 -2 0 25 -6 13 -9 15 -9 5z"/>
<path d="M2172 2080 c0 -14 2 -19 5 -12 2 6 2 18 0 25 -3 6 -5 1 -5 -13z"/>
<path d="M1540 2076 c0 -8 5 -18 10 -21 6 -3 10 1 10 9 0 8 -4 18 -10 21 -5 3
-10 -1 -10 -9z"/>
<path d="M1810 2079 c0 -5 5 -7 10 -4 6 3 10 8 10 11 0 2 -4 4 -10 4 -5 0 -10
-5 -10 -11z"/>
<path d="M1146 2048 c-11 -17 -13 -29 -6 -33 6 -4 8 -12 4 -18 -3 -7 11 6 30
27 42 46 44 54 12 52 -15 0 -31 -12 -40 -28z"/>
<path d="M1320 2071 c0 -5 7 -15 17 -22 15 -13 15 -12 4 9 -12 23 -21 28 -21
13z"/>
<path d="M1850 2076 c0 -2 8 -10 18 -17 15 -13 16 -12 3 4 -13 16 -21 21 -21
13z"/>
<path d="M1531 2034 c0 -11 3 -14 6 -6 3 7 2 16 -1 19 -3 4 -6 -2 -5 -13z"/>
<path d="M1876 2032 c-3 -6 -1 -14 5 -17 15 -10 25 3 12 16 -7 7 -13 7 -17 1z"/>
<path d="M1983 2015 c0 -14 3 -27 7 -30 4 -2 6 7 4 21 -3 35 -11 41 -11 9z"/>
<path d="M432 1985 c0 -16 2 -22 5 -12 2 9 2 23 0 30 -3 6 -5 -1 -5 -18z"/>
<path d="M1513 1981 c-8 -23 -8 -28 3 -27 7 1 17 6 21 11 4 4 2 5 -5 1 -10 -6
-11 -1 -6 18 8 35 1 33 -13 -3z"/>
<path d="M433 1905 c0 -27 2 -38 4 -22 2 15 2 37 0 50 -2 12 -4 0 -4 -28z"/>
<path d="M1483 1914 c-12 -26 -12 -26 7 -9 11 10 17 22 14 26 -7 12 -7 12 -21
-17z"/>
<path d="M1972 1905 c-11 -12 -10 -15 3 -15 8 0 15 7 15 15 0 18 -2 18 -18 0z"/>
<path d="M1380 1891 c0 -6 4 -13 10 -16 6 -3 7 1 4 9 -7 18 -14 21 -14 7z"/>
<path d="M1495 1889 c-4 -6 -5 -12 -2 -15 2 -3 7 2 10 11 7 17 1 20 -8 4z"/>
<path d="M1456 1864 c-4 -9 -4 -19 -1 -22 2 -3 7 3 11 12 4 9 4 19 1 22 -2 3
-7 -3 -11 -12z"/>
<path d="M434 1745 c0 -60 1 -84 3 -52 2 32 2 81 0 110 -2 29 -3 3 -3 -58z"/>
<path d="M1135 1840 c-3 -6 1 -7 9 -4 18 7 21 14 7 14 -6 0 -13 -4 -16 -10z"/>
<path d="M1574 1825 c-9 -19 -8 -22 5 -20 10 1 15 10 13 21 -5 26 -6 26 -18
-1z"/>
<path d="M2171 1814 c0 -11 3 -14 6 -6 3 7 2 16 -1 19 -3 4 -6 -2 -5 -13z"/>
<path d="M1970 1810 c20 -13 33 -13 25 0 -3 6 -14 10 -23 10 -15 0 -15 -2 -2
-10z"/>
<path d="M1009 1773 c-13 -16 -12 -17 4 -4 9 7 17 15 17 17 0 8 -8 3 -21 -13z"/>
<path d="M1086 1762 c-9 -15 9 -31 24 -22 13 8 12 10 -3 10 -10 0 -15 5 -12
10 3 6 4 10 1 10 -3 0 -7 -4 -10 -8z"/>
<path d="M1400 1753 c0 -6 8 -17 18 -24 16 -13 16 -13 2 6 -8 11 -16 22 -17
24 -2 2 -3 0 -3 -6z"/>
<path d="M1876 1752 c-9 -15 9 -31 24 -22 13 8 12 10 -3 10 -10 0 -15 5 -12
10 3 6 4 10 1 10 -3 0 -7 -4 -10 -8z"/>
<path d="M885 1661 c-3 -5 -2 -12 3 -15 5 -3 9 1 9 9 0 17 -3 19 -12 6z"/>
<path d="M956 1652 c-3 -5 1 -9 9 -9 8 0 12 4 9 9 -3 4 -7 8 -9 8 -2 0 -6 -4
-9 -8z"/>
<path d="M1305 1632 c3 -3 -1 -12 -7 -21 -8 -10 -4 -9 10 3 26 23 26 23 7 23
-8 0 -13 -3 -10 -5z"/>
<path d="M908 1613 c7 -3 16 -2 19 1 4 3 -2 6 -13 5 -11 0 -14 -3 -6 -6z"/>
<path d="M1120 1608 c0 -4 6 -8 14 -8 8 0 17 4 20 8 2 4 -4 8 -15 8 -10 0 -19
-4 -19 -8z"/>
<path d="M1346 1613 c-4 -5 -12 -8 -17 -8 -5 0 -9 -4 -10 -10 0 -5 -9 -19 -19
-30 -11 -12 -16 -26 -12 -32 5 -7 7 -35 6 -62 -1 -45 1 -50 24 -56 16 -4 28
-1 33 7 21 37 37 47 82 52 55 6 49 29 51 -191 1 -95 -2 -150 -8 -146 -5 3 -6
1 -2 -6 9 -14 -12 -43 -25 -35 -5 3 -9 0 -9 -5 0 -6 -5 -11 -11 -11 -6 0 -17
-7 -25 -15 -12 -12 -12 -15 -2 -15 11 0 11 -2 0 -9 -10 -6 -4 -12 20 -24 18
-9 35 -12 38 -7 4 6 19 6 40 0 44 -13 53 -13 45 0 -7 11 8 14 18 4 9 -10 77
-12 82 -3 3 4 20 3 37 -2 22 -6 35 -5 43 3 7 8 6 9 -5 4 -10 -5 -10 -3 2 6 18
15 8 46 -11 34 -6 -4 -9 -12 -6 -17 4 -5 -52 -9 -139 -9 -139 0 -146 1 -146
20 0 13 7 20 19 20 30 0 51 11 51 27 0 8 3 12 8 10 4 -3 7 77 6 176 l0 182 6
-170 6 -170 2 193 2 192 -52 0 c-74 0 -116 -17 -123 -52 -4 -15 -12 -28 -19
-28 -8 0 -11 21 -10 68 l1 67 249 0 249 0 3 -66 c2 -49 -1 -66 -11 -66 -7 0
-14 9 -14 20 -3 38 -29 51 -110 56 -69 3 -76 2 -65 -12 10 -12 12 -62 10 -205
-2 -105 0 -188 5 -185 4 2 7 -3 7 -12 0 -8 12 -20 26 -25 44 -17 50 -10 16 20
l-32 30 2 178 3 177 41 1 c46 1 68 -11 79 -45 5 -18 4 -22 -6 -16 -8 5 -11 4
-6 0 13 -15 58 -11 68 6 20 39 3 172 -25 191 -13 8 -26 1 -26 -15 0 -8 3 -8 9
2 6 9 11 10 15 2 9 -13 4 -14 -99 -11 -44 1 -141 3 -215 3 -102 2 -134 5 -132
15 2 14 -1 15 -12 5z m4 -19 c0 -8 -19 -13 -24 -6 -3 5 1 9 9 9 8 0 15 -2 15
-3z"/>
<path d="M956 1598 c9 -15 -24 -20 -48 -7 -22 12 -22 11 -8 -6 14 -17 13 -18
-2 -12 -10 3 -18 3 -18 -2 0 -9 -38 -24 -53 -22 -5 1 -6 -2 -3 -7 2 -4 -9 -14
-25 -21 -16 -7 -27 -17 -24 -22 4 -5 -2 -6 -12 -2 -16 6 -16 5 -4 -10 13 -17
15 -16 36 3 33 31 40 24 8 -8 -23 -24 -30 -27 -41 -15 -16 15 -29 17 -37 3 -3
-6 1 -7 9 -4 9 3 16 2 16 -4 0 -6 -5 -12 -11 -14 -12 -4 -19 -36 -26 -122 -6
-70 21 -186 43 -186 8 0 14 -4 14 -9 0 -5 3 -17 7 -27 5 -13 3 -15 -7 -9 -9 5
-11 4 -6 -3 4 -7 4 -17 0 -24 -5 -8 -10 -6 -15 8 -6 15 -7 13 -6 -9 1 -15 10
-36 22 -45 17 -15 18 -15 7 0 -9 11 -10 18 -2 23 6 3 8 10 5 14 -2 5 3 17 11
27 13 16 15 16 10 2 -3 -10 0 -20 6 -24 6 -4 8 -3 4 4 -3 6 -2 13 3 17 6 3 -5
26 -24 51 -39 50 -56 103 -57 173 0 52 17 127 32 136 13 8 13 4 -6 -41 -21
-49 -15 -164 10 -217 26 -52 31 -40 6 14 -22 49 -26 132 -9 194 7 26 28 57 61
88 27 27 40 43 28 37 -15 -8 -20 -8 -16 -1 4 6 39 20 78 32 62 19 86 21 187
16 168 -9 161 -5 161 -93 0 -68 -2 -74 -21 -74 -16 0 -19 4 -14 20 9 27 -40
75 -91 89 -50 14 -147 15 -139 1 4 -6 -1 -7 -10 -3 -11 4 -25 -3 -38 -19 -12
-13 -18 -17 -12 -8 6 9 0 7 -14 -5 -41 -35 -48 -63 -41 -155 8 -103 26 -149
73 -184 83 -63 274 -41 271 31 0 14 5 19 17 16 13 -4 15 -13 11 -51 -6 -57
-16 -72 -44 -64 -16 4 -19 2 -13 -8 5 -8 4 -11 -2 -7 -6 4 -26 4 -44 0 -23 -4
-28 -8 -16 -12 9 -3 -42 -6 -112 -6 -71 0 -128 2 -126 5 2 3 -14 16 -36 28
-21 12 -39 18 -39 12 0 -6 7 -13 16 -17 8 -3 13 -12 9 -21 -4 -12 -2 -12 8 -4
8 7 17 9 20 5 4 -3 0 -11 -8 -17 -12 -8 -3 -11 39 -11 32 1 52 -3 49 -9 -4 -5
0 -7 8 -4 8 3 37 2 66 -2 31 -4 50 -3 46 3 -3 5 3 6 15 3 24 -8 112 12 112 26
0 5 5 6 10 3 6 -3 10 -2 10 4 0 6 7 7 17 4 11 -4 14 -3 9 5 -4 7 -3 12 3 12
27 0 34 103 9 132 -10 11 -18 16 -18 10 0 -6 -9 -9 -19 -7 -15 3 -19 -1 -16
-15 2 -10 -6 -27 -17 -37 -15 -12 -19 -13 -14 -3 7 13 6 13 -6 0 -7 -8 -20
-16 -28 -16 -8 -1 -24 -5 -34 -10 -12 -4 -17 -4 -13 2 3 6 -8 8 -29 6 -22 -3
-44 2 -62 14 -15 10 -29 19 -32 19 -12 1 -30 17 -30 26 0 6 6 7 13 3 6 -5 4 3
-5 16 -9 14 -22 24 -28 22 -6 -1 -9 2 -6 7 4 5 2 12 -4 16 -5 3 -10 36 -10 73
0 50 3 63 11 52 8 -12 9 -10 4 7 -3 12 -1 24 5 28 5 3 10 15 10 26 0 17 11 24
33 20 5 -1 6 3 2 9 -3 5 2 10 12 10 10 0 27 7 37 15 11 8 25 15 30 15 6 0 4
-5 -4 -11 -12 -8 -10 -10 10 -5 37 8 111 -12 132 -36 17 -19 20 -27 17 -45 0
-3 6 -10 15 -15 22 -13 56 -18 57 -10 0 4 3 16 5 27 9 35 10 115 3 127 -5 7
-3 18 3 26 6 7 7 12 2 11 -5 -1 -11 0 -14 1 -3 2 -21 4 -40 6 -19 2 -60 8 -90
15 -30 6 -82 9 -115 6 -38 -4 -53 -3 -40 3 17 8 17 9 -7 7 -15 -1 -24 -5 -22
-9z m-16 -398 c0 -5 -2 -10 -4 -10 -3 0 -8 5 -11 10 -3 6 -1 10 4 10 6 0 11
-4 11 -10z m128 -177 c-15 -2 -42 -2 -60 0 -18 2 -6 4 27 4 33 0 48 -2 33 -4z"/>
<path d="M1179 1597 c7 -7 18 -7 33 0 20 9 20 10 -10 10 -22 0 -29 -4 -23 -10z"/>
<path d="M1708 1603 c7 -3 16 -2 19 1 4 3 -2 6 -13 5 -11 0 -14 -3 -6 -6z"/>
<path d="M2170 1576 c0 -8 4 -17 9 -20 5 -4 7 3 4 14 -6 23 -13 26 -13 6z"/>
<path d="M432 1550 c0 -14 2 -19 5 -12 2 6 2 18 0 25 -3 6 -5 1 -5 -13z"/>
<path d="M789 1553 c-13 -16 -12 -17 4 -4 9 7 17 15 17 17 0 8 -8 3 -21 -13z"/>
<path d="M755 1551 c-3 -5 -2 -12 3 -15 5 -3 9 1 9 9 0 17 -3 19 -12 6z"/>
<path d="M1021 1546 c2 -2 33 -6 68 -9 41 -3 59 -2 50 4 -13 8 -128 14 -118 5z"/>
<path d="M1735 1540 c-52 -6 -54 -7 -18 -8 23 -1 48 -5 56 -8 8 -3 17 2 20 10
4 9 5 15 4 14 -1 -1 -29 -4 -62 -8z"/>
<path d="M724 1515 c0 -13 3 -22 7 -19 8 4 6 30 -2 38 -3 3 -5 -5 -5 -19z"/>
<path d="M1330 1532 c0 -4 4 -12 8 -19 6 -9 11 -8 19 5 9 15 7 18 -8 19 -11 1
-19 -1 -19 -5z"/>
<path d="M1413 1533 c9 -2 23 -2 30 0 6 3 -1 5 -18 5 -16 0 -22 -2 -12 -5z"/>
<path d="M1548 1528 c17 -8 26 -8 34 0 9 9 4 12 -22 11 -33 0 -34 -1 -12 -11z"/>
<path d="M930 1520 c0 -5 -7 -7 -15 -4 -8 4 -17 -1 -21 -10 -3 -9 -10 -14 -14
-11 -4 3 -18 -3 -30 -13 -20 -16 -21 -20 -7 -25 11 -4 14 -2 10 9 -3 7 0 15 6
15 6 1 16 2 21 3 6 0 15 7 19 15 5 7 13 11 19 7 5 -3 15 1 22 9 9 10 9 15 1
15 -6 0 -11 -4 -11 -10z"/>
<path d="M1200 1526 c0 -2 7 -7 16 -10 8 -3 12 -2 9 4 -6 10 -25 14 -25 6z"/>
<path d="M2160 1492 c0 -17 5 -34 10 -37 7 -4 9 5 5 26 -8 44 -15 50 -15 11z"/>
<path d="M421 1500 c0 -8 4 -22 9 -30 12 -18 12 -2 0 25 -6 13 -9 15 -9 5z"/>
<path d="M1140 1450 c0 -5 5 -10 11 -10 5 0 7 5 4 10 -3 6 -8 10 -11 10 -2 0
-4 -4 -4 -10z"/>
<path d="M800 1430 c-6 -11 -8 -20 -6 -20 3 0 10 9 16 20 6 11 8 20 6 20 -3 0
-10 -9 -16 -20z"/>
<path d="M1613 1355 c0 -33 2 -45 4 -27 2 18 2 45 0 60 -2 15 -4 0 -4 -33z"/>
<path d="M786 1387 c3 -10 9 -15 12 -12 3 3 0 11 -7 18 -10 9 -11 8 -5 -6z"/>
<path d="M681 1364 c0 -11 3 -14 6 -6 3 7 2 16 -1 19 -3 4 -6 -2 -5 -13z"/>
<path d="M773 1363 c3 -13 1 -26 -5 -29 -23 -15 11 -140 54 -197 13 -17 15
-17 27 -3 12 14 12 16 -3 10 -12 -5 -18 1 -22 25 -4 17 -10 29 -14 26 -7 -5
-21 39 -25 80 -1 11 -3 25 -5 30 -5 21 0 36 11 29 7 -4 7 2 -1 17 -18 34 -24
38 -17 12z"/>
<path d="M510 1361 c0 -5 5 -13 10 -16 6 -3 10 -2 10 4 0 5 -4 13 -10 16 -5 3
-10 2 -10 -4z"/>
<path d="M862 1340 c0 -14 2 -19 5 -12 2 6 2 18 0 25 -3 6 -5 1 -5 -13z"/>
<path d="M463 1343 c2 -5 12 -26 22 -48 31 -72 39 -87 43 -77 3 11 -55 132
-64 132 -3 0 -3 -3 -1 -7z"/>
<path d="M834 1297 c0 -28 3 -54 6 -57 3 -3 10 -20 17 -38 10 -29 10 -32 -3
-22 -8 7 -14 8 -14 2 0 -5 11 -17 25 -26 14 -9 23 -22 19 -28 -4 -7 -3 -8 4
-4 7 4 12 3 12 -3 0 -18 -20 -23 -26 -7 -4 11 -11 13 -23 7 -11 -7 -23 -4 -40
12 -16 14 -22 17 -19 7 5 -17 84 -80 101 -80 6 0 2 7 -9 15 -19 15 -19 16 1
13 11 -2 20 2 20 9 0 6 3 14 7 18 3 4 5 -5 4 -19 -2 -14 1 -26 5 -26 5 0 9 6
9 13 0 8 3 7 10 -3 25 -39 267 -18 283 24 4 11 -4 9 -30 -6 -48 -29 -170 -31
-227 -3 -66 32 -111 112 -118 208 -4 59 -16 54 -14 -6z m36 -197 c0 -5 -4 -10
-9 -10 -6 0 -13 5 -16 10 -3 6 1 10 9 10 9 0 16 -4 16 -10z"/>
<path d="M946 1307 c3 -10 9 -15 12 -12 3 3 0 11 -7 18 -10 9 -11 8 -5 -6z"/>
<path d="M2022 1300 c7 -11 17 -20 22 -20 5 0 1 9 -9 20 -10 11 -20 20 -22 20
-2 0 2 -9 9 -20z"/>
<path d="M1613 1225 c0 -38 2 -53 4 -32 2 20 2 52 0 70 -2 17 -4 1 -4 -38z"/>
<path d="M1582 1260 c0 -14 2 -19 5 -12 2 6 2 18 0 25 -3 6 -5 1 -5 -13z"/>
<path d="M1224 1228 c-4 -6 -3 -8 4 -4 6 3 18 -1 26 -10 9 -8 16 -11 16 -5 0
17 -38 33 -46 19z"/>
<path d="M1530 1181 c0 -36 -6 -74 -15 -91 -15 -29 -15 -30 10 -30 14 0 25 5
25 11 0 5 -4 8 -9 4 -6 -3 -6 7 -1 26 8 28 4 128 -6 138 -2 2 -4 -24 -4 -58z"/>
<path d="M1587 1144 c3 -22 7 -41 9 -43 2 -2 -4 -10 -14 -18 -9 -8 -12 -12 -5
-9 6 4 14 2 18 -4 3 -5 12 -10 19 -10 10 0 8 14 -6 58 -24 70 -29 76 -21 26z"/>
<path d="M2015 1153 c-10 -16 -29 -40 -43 -55 -23 -25 -23 -27 -5 -25 11 0 20
8 19 16 -1 8 10 21 24 28 14 7 19 13 12 13 -10 0 -10 4 2 16 15 14 22 34 12
34 -2 0 -12 -12 -21 -27z"/>
<path d="M683 1148 c1 -7 -3 -12 -10 -13 -6 0 -14 -3 -18 -7 -6 -5 19 -4 35 2
3 1 9 2 14 1 5 -1 4 5 -4 13 -15 19 -21 20 -17 4z"/>
<path d="M1440 1120 c0 -5 5 -10 11 -10 5 0 7 5 4 10 -3 6 -8 10 -11 10 -2 0
-4 -4 -4 -10z"/>
<path d="M1855 1069 c-4 -6 -5 -12 -2 -15 2 -3 7 2 10 11 7 17 1 20 -8 4z"/>
<path d="M920 1050 c8 -5 22 -9 30 -9 10 0 8 3 -5 9 -27 12 -43 12 -25 0z"/>
<path d="M1360 1045 c0 -5 5 -17 10 -25 5 -8 10 -10 10 -5 0 6 -5 17 -10 25
-5 8 -10 11 -10 5z"/>
<path d="M1473 1043 c20 -2 54 -2 75 0 20 2 3 4 -38 4 -41 0 -58 -2 -37 -4z"/>
<path d="M850 966 c0 -2 7 -7 16 -10 8 -3 12 -2 9 4 -6 10 -25 14 -25 6z"/>
<path d="M941 907 c-13 -21 -12 -21 5 -5 10 10 16 20 13 22 -3 3 -11 -5 -18
-17z"/>
<path d="M1685 920 c6 -10 4 -12 -11 -6 -15 6 -17 5 -6 -5 9 -9 15 -10 23 -2
8 8 7 13 -2 18 -8 6 -10 4 -4 -5z"/>
<path d="M1730 880 c-19 -16 -29 -29 -22 -30 6 0 20 8 30 18 10 10 25 18 34
16 8 -1 15 5 15 12 0 22 -20 17 -57 -16z"/>
<path d="M987 839 c7 -7 15 -10 18 -7 3 3 -2 9 -12 12 -14 6 -15 5 -6 -5z"/>
<path d="M1379 748 c-9 -30 -6 -37 12 -27 11 5 17 14 14 20 -6 8 -24 13 -26 7z"/>
<path d="M1206 731 c8 -8 43 -8 38 0 -2 4 -13 7 -24 6 -10 -1 -17 -3 -14 -6z"/>
<path d="M1250 710 c-9 -6 -10 -10 -3 -10 6 0 15 5 18 10 8 12 4 12 -15 0z"/>
<path d="M587 1132 c-3 -4 1 -16 9 -27 8 -10 14 -15 14 -9 1 5 9 -7 20 -26 11
-19 19 -31 20 -25 0 5 14 -6 31 -24 16 -18 32 -32 34 -29 2 2 -13 22 -33 44
-20 22 -49 54 -64 72 -15 18 -29 29 -31 24z"/>
<path d="M835 880 c-8 -13 9 -20 24 -11 10 6 9 10 -3 14 -8 3 -18 2 -21 -3z"/>
<path d="M1012 764 c10 -10 20 -16 22 -13 3 3 -5 11 -17 18 -21 13 -21 12 -5
-5z"/>
<path d="M1141 692 c7 -11 18 -20 23 -19 6 1 10 -4 9 -10 -2 -7 2 -12 9 -10 7
1 12 -3 13 -10 0 -6 4 -15 8 -20 5 -4 7 -2 5 6 -1 7 3 16 11 19 8 2 11 0 7 -6
-3 -6 -1 -14 5 -18 8 -4 9 -3 5 4 -4 7 -1 12 6 12 14 1 -16 21 -36 24 -6 1
-27 12 -45 25 -30 22 -32 22 -20 3z"/>
<path d="M1018 2719 c-26 -15 -22 -32 5 -24 12 4 27 12 32 17 6 6 3 7 -9 2
-13 -5 -17 -4 -12 4 9 14 6 14 -16 1z"/>
<path d="M1534 2709 c-4 -8 68 -21 75 -14 2 3 -3 5 -13 5 -9 0 -15 4 -12 9 3
5 -6 8 -20 7 -14 0 -28 -4 -30 -7z"/>
<path d="M920 2700 c0 -6 7 -10 15 -10 8 0 15 2 15 4 0 2 -7 6 -15 10 -8 3
-15 1 -15 -4z"/>
<path d="M1655 2690 c3 -5 11 -10 16 -10 6 0 7 5 4 10 -3 6 -11 10 -16 10 -6
0 -7 -4 -4 -10z"/>
<path d="M1834 2689 c-11 -18 11 -32 25 -16 9 12 8 16 -3 20 -9 4 -18 1 -22
-4z"/>
<path d="M810 2686 c0 -2 7 -9 15 -16 9 -7 15 -8 15 -2 0 5 -7 12 -15 16 -8 3
-15 4 -15 2z"/>
<path d="M1748 2673 c7 -3 16 -2 19 1 4 3 -2 6 -13 5 -11 0 -14 -3 -6 -6z"/>
<path d="M1882 2671 c-18 -11 11 -23 35 -14 12 5 15 2 10 -10 -4 -11 -2 -14 9
-10 24 9 9 28 -20 26 -14 -1 -24 2 -21 8 7 11 4 11 -13 0z"/>
<path d="M695 2660 c-3 -5 1 -10 10 -10 9 0 13 5 10 10 -3 6 -8 10 -10 10 -2
0 -7 -4 -10 -10z"/>
<path d="M645 2651 c-9 -15 15 -25 28 -12 9 9 7 10 -7 5 -13 -5 -17 -4 -12 4
4 7 5 12 2 12 -3 0 -7 -4 -11 -9z"/>
<path d="M1960 2650 c0 -5 7 -10 16 -10 9 0 12 -5 8 -12 -6 -10 -5 -10 7 -1
18 15 45 1 34 -17 -5 -8 -4 -11 3 -7 15 10 44 -3 39 -17 -3 -7 3 -12 13 -12
10 0 17 3 14 7 -6 10 26 20 38 13 5 -3 8 -15 5 -25 -3 -11 -1 -17 4 -13 5 3 9
12 9 21 0 21 11 11 14 -13 2 -10 9 -20 17 -22 10 -2 11 -1 2 5 -7 5 -9 14 -4
22 6 10 10 9 15 -4 3 -10 12 -15 21 -11 8 3 15 1 15 -5 0 -6 7 -9 14 -6 10 4
13 1 9 -9 -4 -11 -9 -12 -16 -5 -14 14 -37 14 -37 0 0 -5 5 -7 11 -4 11 8 51
-33 44 -45 -3 -5 1 -11 7 -13 10 -4 10 -6 1 -6 -16 -1 -17 -135 -2 -166 6 -14
7 1 3 45 -6 73 5 125 17 80 4 -15 7 1 7 43 1 39 -3 65 -8 62 -5 -3 -7 -12 -3
-20 3 -8 0 -15 -7 -15 -6 0 -9 4 -6 9 4 5 0 11 -6 13 -9 3 -5 9 9 18 21 14 20
14 -20 33 -47 21 -218 81 -259 91 -17 4 -28 2 -28 -4z m130 -50 c0 -5 -2 -10
-4 -10 -3 0 -8 5 -11 10 -3 6 -1 10 4 10 6 0 11 -4 11 -10z"/>
<path d="M600 2640 c0 -5 4 -10 9 -10 6 0 13 5 16 10 3 6 -1 10 -9 10 -9 0
-16 -4 -16 -10z"/>
<path d="M480 2581 c0 -6 4 -13 10 -16 6 -3 7 1 4 9 -7 18 -14 21 -14 7z"/>
<path d="M2270 2375 c0 -5 5 -17 10 -25 5 -8 10 -10 10 -5 0 6 -5 17 -10 25
-5 8 -10 11 -10 5z"/>
<path d="M353 2245 c0 -22 2 -30 4 -17 2 12 2 30 0 40 -3 9 -5 -1 -4 -23z"/>
<path d="M351 2134 c0 -11 3 -14 6 -6 3 7 2 16 -1 19 -3 4 -6 -2 -5 -13z"/>
<path d="M352 1985 c0 -16 2 -22 5 -12 2 9 2 23 0 30 -3 6 -5 -1 -5 -18z"/>
<path d="M351 1830 c-5 -72 -4 -359 3 -387 4 -19 3 -34 -3 -38 -7 -3 -11 3
-12 17 0 13 -3 34 -5 48 -2 14 -6 54 -10 90 -8 97 -18 88 -11 -10 8 -108 38
-225 82 -319 39 -80 40 -85 24 -75 -8 4 -8 0 0 -15 14 -25 22 -28 15 -3 -6 18
2 9 42 -43 12 -16 14 -17 10 -2 -3 11 0 17 9 17 20 0 19 4 -12 53 -86 136
-114 250 -123 502 -3 105 -7 179 -9 165z m22 -447 c-3 -7 -9 -10 -14 -7 -14 8
-11 21 5 21 8 0 12 -6 9 -14z m14 -47 c-3 -7 1 -23 9 -35 8 -11 12 -21 8 -21
-3 0 -1 -6 5 -14 7 -8 16 -29 21 -48 l10 -33 -19 24 c-10 14 -17 31 -14 38 3
7 0 13 -7 13 -7 0 -10 6 -7 14 3 8 -1 17 -9 20 -9 3 -13 10 -9 15 3 5 1 12 -5
16 -16 10 -12 25 6 25 10 0 14 -6 11 -14z m83 -186 c12 -16 18 -30 13 -30 -5
0 -17 14 -26 30 -10 17 -16 30 -13 30 2 0 14 -13 26 -30z"/>
<path d="M311 1654 c0 -11 3 -14 6 -6 3 7 2 16 -1 19 -3 4 -6 -2 -5 -13z"/>
<path d="M2243 1595 c-1 -38 1 -64 4 -57 7 17 23 5 23 -19 0 -11 -4 -18 -8
-15 -7 4 -8 -16 -3 -44 1 -3 6 2 11 10 14 22 12 66 -5 80 -8 6 -16 34 -18 63
-3 44 -3 41 -4 -18z"/>
<path d="M2283 1600 c0 -25 2 -35 4 -22 2 12 2 32 0 45 -2 12 -4 2 -4 -23z"/>
<path d="M2230 1492 c0 -37 -41 -178 -69 -237 -15 -33 -45 -84 -65 -113 -33
-49 -40 -82 -15 -66 6 3 5 -3 -2 -14 -7 -12 -17 -18 -22 -15 -5 3 -4 9 3 13 7
4 8 10 3 13 -10 6 -139 -133 -135 -145 1 -4 -2 -7 -7 -6 -4 2 -44 -27 -87 -63
-44 -36 -93 -76 -111 -89 -18 -13 -29 -28 -26 -33 3 -6 1 -7 -5 -3 -6 3 -35
-9 -64 -27 -29 -19 -87 -53 -129 -76 -43 -23 -76 -48 -76 -56 0 -19 42 -15 78
8 13 8 54 31 92 51 37 21 65 41 62 46 -3 5 -12 7 -20 4 -8 -4 -13 -10 -10 -14
3 -4 -2 -11 -11 -14 -25 -9 -26 -7 -7 12 29 30 67 49 90 47 12 -1 19 3 16 8
-3 6 -1 7 5 3 11 -7 34 8 83 55 16 15 30 25 32 23 2 -3 10 2 17 11 7 9 8 15 2
15 -6 0 -12 -5 -14 -12 -3 -8 -7 -6 -10 4 -5 12 -1 15 18 13 18 -2 39 10 72
41 26 24 41 44 35 44 -7 0 -13 5 -13 11 0 8 4 8 13 0 10 -8 23 -1 53 31 21 23
32 39 23 36 -9 -4 -16 -1 -16 8 0 7 4 11 9 8 4 -3 11 2 14 11 4 9 13 14 20 11
15 -6 96 93 88 106 -8 13 -32 -16 -27 -32 4 -13 3 -13 -5 -1 -8 11 -4 23 15
48 14 18 28 33 31 33 3 0 1 -5 -6 -12 -14 -14 -16 -28 -3 -28 14 0 84 147 76
159 -10 17 -25 3 -19 -17 5 -14 4 -15 -5 -2 -6 9 -7 18 -1 24 6 6 10 20 10 31
0 12 3 25 7 29 4 3 8 14 8 24 1 9 6 38 10 65 4 26 5 47 1 47 -3 0 -6 -8 -6
-18z m-37 -253 c-14 -29 -33 -47 -33 -32 0 4 7 17 15 27 8 10 12 22 10 26 -2
4 2 7 9 7 10 0 10 -6 -1 -28z m-88 -139 c3 -5 -1 -10 -10 -10 -9 0 -13 5 -10
10 3 6 8 10 10 10 2 0 7 -4 10 -10z m-120 -140 c-10 -11 -21 -17 -24 -14 -3 3
3 12 13 20 28 20 32 17 11 -6z m-81 -69 c3 -5 -7 -16 -22 -25 l-27 -17 22 19
c12 11 19 22 16 26 -4 3 -4 6 0 6 3 0 8 -4 11 -9z m-92 -78 c-6 -3 -10 -8 -8
-12 2 -3 -12 -17 -32 -30 l-37 -24 40 41 c21 23 42 38 45 35 3 -3 -1 -8 -8
-10z m-278 -200 c-35 -19 -49 -22 -58 -13 -8 8 -6 9 8 4 13 -5 17 -4 12 4 -5
8 -1 10 10 5 13 -5 15 -3 9 7 -5 8 -4 11 3 6 6 -3 17 0 24 8 7 7 19 11 26 9 7
-3 -8 -16 -34 -30z m-64 -31 c0 -5 -7 -9 -15 -9 -8 0 -12 4 -9 9 3 4 9 8 15 8
5 0 9 -4 9 -8z"/>
<path d="M2261 1434 c0 -11 3 -14 6 -6 3 7 2 16 -1 19 -3 4 -6 -2 -5 -13z"/>
<path d="M2220 1348 c0 -9 5 -20 10 -23 13 -8 13 5 0 25 -8 13 -10 13 -10 -2z"/>
<path d="M406 1052 c-3 -5 1 -9 9 -9 8 0 12 4 9 9 -3 4 -7 8 -9 8 -2 0 -6 -4
-9 -8z"/>
<path d="M2089 1033 c-1 -4 -1 -11 -1 -14 1 -4 -9 -6 -21 -5 -14 1 -21 -4 -19
-13 2 -8 -27 -44 -63 -81 -61 -61 -65 -68 -49 -81 16 -13 17 -12 11 10 -4 17
-3 21 5 13 7 -7 17 -3 33 14 12 13 25 21 28 17 4 -3 7 0 7 8 0 24 36 49 50 36
10 -9 11 -9 6 0 -3 6 -2 22 3 35 6 12 10 17 10 11 1 -7 5 -13 11 -13 5 0 6 7
3 17 -4 10 -2 14 4 10 7 -5 9 0 6 13 -6 21 -22 37 -24 23z m-59 -86 c0 -2 -12
-14 -27 -28 l-28 -24 24 28 c23 25 31 32 31 24z"/>
<path d="M510 968 c-14 -12 -18 -19 -9 -16 19 7 44 -6 44 -24 1 -7 7 -12 14
-10 8 2 11 -3 8 -12 -4 -11 -1 -13 10 -9 12 5 14 3 8 -7 -5 -8 -4 -11 2 -7 6
4 18 -2 28 -13 18 -20 8 -29 -11 -10 -7 7 -17 3 -30 -12 l-19 -23 22 18 c12
10 24 14 27 9 3 -6 -1 -13 -10 -16 -19 -7 -12 -19 12 -22 10 -2 14 3 10 12 -4
11 1 13 21 10 31 -6 75 -45 66 -59 -3 -6 -1 -7 5 -4 10 7 40 -15 93 -67 24
-24 31 -27 44 -16 18 15 10 32 -13 28 -9 -2 -17 3 -17 9 0 16 -40 44 -50 35
-3 -4 -5 0 -3 8 2 9 -4 15 -14 15 -10 0 -23 6 -30 14 -11 12 -10 13 2 6 8 -5
4 4 -10 19 -13 14 -29 25 -36 22 -7 -3 -20 5 -31 16 -12 15 -13 19 -3 13 8 -4
-12 20 -45 54 -33 33 -60 61 -60 61 0 -1 -11 -10 -25 -22z m85 -48 c21 -22 37
-40 34 -40 -3 0 -23 18 -44 40 -21 22 -37 40 -34 40 3 0 23 -18 44 -40z"/>
<path d="M459 963 c-13 -16 -12 -17 4 -4 9 7 17 15 17 17 0 8 -8 3 -21 -13z"/>
<path d="M2091 927 c-13 -21 -12 -21 5 -5 10 10 16 20 13 22 -3 3 -11 -5 -18
-17z"/>
<path d="M652 920 c-9 -14 -7 -22 10 -36 11 -11 32 -19 46 -19 14 0 27 -7 30
-15 5 -13 3 -13 -13 0 -15 12 -15 8 4 -17 25 -36 38 -44 21 -14 -7 13 -7 22 0
26 5 3 10 -1 10 -9 0 -9 4 -16 10 -16 5 0 6 -8 3 -17 -6 -16 -5 -16 10 -4 14
11 18 11 23 -3 3 -9 10 -14 14 -11 4 3 11 -2 14 -11 3 -8 11 -12 17 -8 8 4 9
3 5 -4 -4 -7 -2 -13 3 -13 6 -1 17 -2 24 -3 6 0 12 -9 12 -18 0 -10 16 -31 35
-47 31 -26 36 -27 47 -12 12 14 12 14 6 -4 -6 -18 -5 -18 10 -6 14 11 17 11
18 0 1 -8 1 -18 0 -22 -1 -5 3 -6 9 -2 6 3 7 12 3 18 -4 7 0 6 10 -2 18 -15
23 -26 7 -16 -17 11 -11 -7 8 -21 21 -16 32 -17 32 -3 0 5 -4 8 -9 4 -5 -3
-12 -1 -16 5 -3 5 2 10 12 10 12 0 7 7 -17 22 -76 46 -226 147 -245 165 -12
10 -48 41 -81 70 -55 47 -61 50 -72 33z m34 -24 c10 -8 16 -18 11 -22 -4 -4
-16 2 -27 14 -23 25 -14 29 16 8z m284 -218 c0 -14 -16 -9 -36 13 -19 21 -19
21 9 8 15 -7 27 -16 27 -21z"/>
<path d="M2036 907 c3 -10 9 -15 12 -12 3 3 0 11 -7 18 -10 9 -11 8 -5 -6z"/>
<path d="M2095 900 c-4 -6 -11 -8 -16 -5 -5 4 -9 1 -9 -4 0 -16 16 -13 30 4 7
8 10 15 7 15 -3 0 -9 -5 -12 -10z"/>
<path d="M1990 870 c-13 -8 -12 -10 3 -10 9 0 17 5 17 10 0 12 -1 12 -20 0z"/>
<path d="M1869 813 c-13 -16 -12 -17 4 -4 9 7 17 15 17 17 0 8 -8 3 -21 -13z"/>
<path d="M637 806 c-4 -9 -11 -14 -17 -11 -6 3 -7 -1 -4 -9 6 -16 25 -23 23
-8 -3 19 2 25 11 12 8 -12 10 -12 10 -1 0 11 3 11 17 0 15 -13 15 -12 2 8 -8
14 -16 18 -20 11 -4 -7 -8 -6 -11 3 -3 9 -6 8 -11 -5z"/>
<path d="M791 789 c0 -8 19 -30 43 -47 41 -30 56 -32 56 -9 0 6 -3 7 -6 4 -10
-10 -82 34 -87 52 -4 14 -5 14 -6 0z"/>
<path d="M697 726 c-17 -13 -17 -14 1 -18 12 -4 18 1 18 13 0 11 0 19 -1 19 0
0 -8 -7 -18 -14z"/>
<path d="M1665 699 c-10 -15 3 -25 16 -12 7 7 7 13 1 17 -6 3 -14 1 -17 -5z"/>
<path d="M1845 691 c-3 -5 -2 -12 3 -15 5 -3 9 1 9 9 0 17 -3 19 -12 6z"/>
<path d="M1786 655 c-10 -8 -23 -12 -29 -8 -6 3 -7 1 -4 -5 4 -5 17 -8 30 -5
18 4 19 3 7 -6 -8 -6 -10 -11 -4 -11 6 0 17 7 24 15 18 22 0 37 -24 20z"/>
<path d="M1093 615 c0 -7 6 -11 13 -8 9 3 12 -2 9 -17 -4 -18 -2 -20 11 -10
12 10 18 9 35 -6 11 -10 27 -19 35 -20 9 -1 19 -6 22 -10 4 -4 -1 -4 -10 -1
-10 4 -18 3 -18 -2 0 -5 9 -11 20 -14 10 -3 18 -1 17 3 -1 4 3 8 8 8 6 0 9 -4
8 -9 -2 -4 5 -5 15 -2 14 6 15 4 4 -9 -10 -13 -10 -17 4 -22 23 -9 24 -8 24
13 0 14 -26 32 -98 69 -63 32 -99 45 -99 37z"/>
<path d="M1740 626 c0 -2 8 -10 18 -17 15 -13 16 -12 3 4 -13 16 -21 21 -21
13z"/>
<path d="M851 591 c-10 -6 -9 -10 3 -14 8 -3 18 -2 21 3 8 13 -9 20 -24 11z"/>
<path d="M1695 590 c-4 -6 -10 -8 -15 -5 -5 3 -11 2 -14 -3 -2 -4 6 -8 18 -8
12 0 23 6 23 13 0 16 -4 16 -12 3z"/>
<path d="M1135 570 c3 -5 11 -10 16 -10 6 0 7 5 4 10 -3 6 -11 10 -16 10 -6 0
-7 -4 -4 -10z"/>
<path d="M1126 452 c-3 -4 4 -9 15 -9 23 -2 25 3 4 10 -8 4 -16 3 -19 -1z"/>
<path d="M1446 437 c3 -10 9 -15 12 -12 3 3 0 11 -7 18 -10 9 -11 8 -5 -6z"/>
<path d="M1228 403 c6 -2 18 -2 25 0 6 3 1 5 -13 5 -14 0 -19 -2 -12 -5z"/>
<path d="M1370 406 c0 -2 8 -10 18 -17 15 -13 16 -12 3 4 -13 16 -21 21 -21
13z"/>
<path d="M1228 383 c6 -2 18 -2 25 0 6 3 1 5 -13 5 -14 0 -19 -2 -12 -5z"/>
<path d="M252 1550 c0 -14 2 -19 5 -12 2 6 2 18 0 25 -3 6 -5 1 -5 -13z"/>
<path d="M286 1347 c3 -10 9 -15 12 -12 3 3 0 11 -7 18 -10 9 -11 8 -5 -6z"/>
<path d="M265 1320 c3 -5 11 -10 16 -10 6 0 7 5 4 10 -3 6 -11 10 -16 10 -6 0
-7 -4 -4 -10z"/>
<path d="M320 1230 c-11 -7 -11 -10 -2 -10 8 0 10 -5 6 -12 -4 -7 -3 -9 1 -5
7 6 17 37 12 37 -1 0 -9 -5 -17 -10z"/>
<path d="M340 1189 c0 -5 5 -7 10 -4 6 3 10 8 10 11 0 2 -4 4 -10 4 -5 0 -10
-5 -10 -11z"/>
<path d="M2239 1173 c-13 -16 -12 -17 4 -4 16 13 21 21 13 21 -2 0 -10 -8 -17
-17z"/>
<path d="M2234 1133 c2 -10 -2 -21 -8 -25 -8 -6 -8 -8 0 -8 6 0 17 6 23 14 9
10 8 16 -3 25 -12 10 -14 9 -12 -6z"/>
<path d="M1630 3066 c0 -2 7 -7 16 -10 8 -3 12 -2 9 4 -6 10 -25 14 -25 6z"/>
<path d="M2349 2391 c8 -5 10 -14 6 -21 -5 -9 -4 -11 3 -6 18 11 14 36 -5 36
-14 0 -15 -2 -4 -9z"/>
<path d="M2400 2369 c0 -5 -6 -7 -12 -3 -7 4 -9 3 -5 -2 4 -4 19 -9 32 -10 20
-1 23 2 14 13 -14 16 -29 17 -29 2z"/>
<path d="M170 2346 c0 -2 7 -7 16 -10 8 -3 12 -2 9 4 -6 10 -25 14 -25 6z"/>
<path d="M161 2074 c0 -11 3 -14 6 -6 3 7 2 16 -1 19 -3 4 -6 -2 -5 -13z"/>
<path d="M181 1785 c-2 -11 -4 -98 -6 -194 -2 -122 1 -180 10 -197 6 -13 11
-37 10 -54 -1 -16 3 -30 8 -30 6 0 2 -9 -7 -19 -16 -17 -16 -25 -6 -58 35
-111 148 -302 170 -288 4 3 25 -12 45 -32 35 -35 36 -38 18 -51 -13 -11 -14
-13 -2 -9 9 3 21 -3 28 -14 6 -11 17 -17 23 -13 8 5 9 2 5 -10 -4 -9 -3 -15 1
-12 11 7 52 -22 52 -36 0 -5 -7 -7 -16 -4 -9 3 -12 2 -9 -5 4 -5 16 -7 28 -3
18 5 20 4 10 -7 -7 -7 -13 -18 -13 -24 0 -5 4 -4 9 4 5 7 14 10 21 6 9 -6 9
-9 -1 -15 -10 -7 -10 -11 0 -24 7 -9 17 -13 22 -10 5 3 9 -2 9 -10 0 -9 3 -16
8 -16 4 0 23 -15 43 -33 46 -40 107 -89 127 -101 10 -6 8 1 -6 21 -16 22 -17
30 -7 30 8 0 12 -4 9 -8 -2 -4 0 -10 5 -13 5 -4 12 -2 15 2 3 5 -33 40 -80 78
-192 154 -365 364 -431 525 -62 147 -75 216 -82 439 -4 113 -9 196 -10 185z
m36 -512 c-4 -3 -2 -12 4 -20 6 -7 8 -13 4 -13 -4 0 -2 -7 5 -15 6 -8 9 -19 5
-25 -3 -5 -1 -10 5 -10 6 0 8 -4 5 -10 -13 -21 -27 -10 -21 16 5 18 3 24 -5
18 -8 -4 -9 -3 -5 4 4 7 2 12 -3 12 -6 0 -11 11 -11 25 0 14 5 25 12 25 6 0 8
-3 5 -7z m38 -113 c-3 -5 -11 -10 -16 -10 -6 0 -7 5 -4 10 3 6 11 10 16 10 6
0 7 -4 4 -10z m10 -20 c-3 -5 -1 -10 5 -10 6 0 9 -4 5 -9 -3 -5 -1 -12 5 -16
6 -4 8 -11 5 -16 -4 -5 -2 -9 3 -9 6 0 15 -13 21 -30 5 -16 16 -30 23 -30 9 0
9 -3 -2 -10 -12 -8 -12 -10 5 -10 15 0 17 -3 7 -9 -10 -6 -8 -10 8 -14 13 -3
19 -10 15 -17 -10 -17 -40 14 -66 66 -11 24 -22 50 -23 56 -1 7 -7 23 -14 34
-6 12 -8 24 -5 28 10 9 15 7 8 -4z m203 -306 c-4 -3 -12 5 -18 18 -12 22 -12
22 6 6 10 -10 15 -20 12 -24z m139 -137 c-1 -6 5 -11 13 -12 8 0 14 -7 12 -14
-2 -9 3 -11 13 -7 9 3 13 2 10 -3 -3 -5 4 -12 14 -16 13 -4 18 -11 14 -22 -5
-14 -9 -13 -23 5 -10 12 -20 19 -23 16 -7 -7 -48 47 -42 56 3 5 1 11 -5 15 -5
3 -10 -1 -10 -10 0 -9 -5 -13 -10 -10 -8 5 -8 11 -1 19 7 9 7 17 -2 27 -6 7 0
3 15 -10 15 -13 26 -28 25 -34z m98 -86 c3 -5 1 -12 -5 -16 -5 -3 -10 1 -10 9
0 18 6 21 15 7z m25 -27 c0 -8 -5 -12 -10 -9 -6 4 -8 11 -5 16 9 14 15 11 15
-7z"/>
<path d="M140 1638 c0 -148 9 -260 20 -253 4 2 4 26 0 52 -5 28 -4 56 2 67 6
10 6 16 1 13 -5 -4 -10 47 -11 120 -1 70 -4 129 -7 131 -3 3 -5 -56 -5 -130z"/>
<path d="M2417 1723 c-4 -3 -7 -58 -7 -122 0 -64 -6 -154 -14 -201 -20 -122
-81 -282 -138 -362 -11 -16 -17 -28 -14 -28 3 0 -3 -9 -14 -20 -12 -12 -17
-26 -13 -36 4 -11 2 -15 -4 -11 -5 4 -20 -4 -32 -17 -19 -20 -20 -24 -7 -29 9
-3 18 -2 21 4 4 5 12 6 18 3 7 -4 9 -4 5 1 -4 4 -3 14 3 21 6 8 9 20 6 28 -3
8 1 20 10 27 8 7 19 23 24 36 5 13 14 23 20 23 8 0 9 -4 0 -13 -8 -10 -7 -14
3 -14 8 0 13 7 11 16 -1 9 5 19 14 24 10 5 7 6 -9 3 -24 -5 -24 -4 -6 9 10 8
23 12 29 8 6 -3 7 -1 3 5 -4 7 -2 12 4 12 22 0 111 234 110 290 -1 29 -17 -11
-31 -75 -18 -86 -49 -145 -49 -94 0 11 4 18 9 15 5 -3 12 1 15 10 8 22 8 26
-4 19 -11 -7 -14 8 -3 19 4 3 8 14 9 22 1 9 6 23 10 32 3 9 7 28 8 41 1 14 7
26 14 29 8 2 9 9 2 23 -6 10 -7 19 -2 19 6 0 12 290 6 290 0 0 -4 -3 -7 -7z
m-56 -557 c-9 -11 -11 -17 -11 -36 0 -11 -42 -51 -48 -45 -2 2 5 16 17 31 11
14 18 30 15 35 -3 5 0 9 6 9 7 0 10 7 7 14 -4 10 -1 13 9 9 9 -3 11 -9 5 -17z
m-161 -251 c-7 -9 -15 -13 -17 -11 -6 6 20 36 26 30 2 -2 -2 -10 -9 -19z"/>
<path d="M2437 1563 c-6 -12 0 -154 8 -161 3 -3 5 33 4 81 -2 84 -3 95 -12 80z"/>
<path d="M165 1370 c-9 -14 5 -81 16 -75 4 3 4 17 -1 30 -5 14 -7 32 -4 40 7
17 -1 21 -11 5z"/>
<path d="M380 898 c16 -17 33 -29 36 -25 4 4 2 7 -5 7 -7 0 -9 5 -5 13 4 6 4
9 -1 5 -5 -5 -14 1 -22 12 -8 11 -18 20 -23 20 -5 0 4 -14 20 -32z"/>
<path d="M2156 881 c-4 -5 -2 -12 3 -15 5 -4 12 -2 15 3 4 5 2 12 -3 15 -5 4
-12 2 -15 -3z"/>
<path d="M2136 857 c5 -14 2 -18 -12 -15 -12 2 -18 -2 -16 -10 1 -8 -7 -16
-18 -19 -24 -6 -38 -49 -21 -66 9 -9 11 -8 5 6 -5 13 -2 16 12 11 18 -5 18 -5
1 6 -23 15 -13 30 21 31 15 0 21 3 13 6 -11 4 -8 10 10 24 20 15 22 20 11 31
-11 11 -12 10 -6 -5z"/>
<path d="M2018 751 c-9 -11 -14 -22 -11 -25 4 -3 0 -6 -9 -6 -18 0 -64 -47
-55 -57 4 -3 7 -1 7 7 0 10 3 10 18 -1 14 -11 15 -11 5 1 -9 10 -10 17 -2 27
15 17 43 17 33 1 -6 -10 -3 -9 8 0 10 8 14 20 11 30 -6 15 -4 15 9 4 11 -9 18
-10 23 -2 4 6 3 10 -2 9 -20 -3 -25 2 -13 16 7 8 8 15 3 15 -5 0 -16 -9 -25
-19z"/>
<path d="M1865 579 c-5 -5 -24 -22 -42 -38 -17 -16 -33 -27 -36 -25 -2 2 -12
-5 -22 -16 -29 -32 -2 -23 41 13 21 18 49 40 62 49 13 9 20 18 15 21 -4 2 -12
1 -18 -4z"/>
<path d="M646 472 c-3 -5 1 -9 9 -9 8 0 12 4 9 9 -3 4 -7 8 -9 8 -2 0 -6 -4
-9 -8z"/>
<path d="M1969 463 c-13 -16 -12 -17 4 -4 16 13 21 21 13 21 -2 0 -10 -8 -17
-17z"/>
<path d="M726 413 c-6 -14 -5 -15 5 -6 7 7 10 15 7 18 -3 3 -9 -2 -12 -12z"/>
<path d="M745 391 c-3 -5 -2 -12 3 -15 5 -3 9 1 9 9 0 17 -3 19 -12 6z"/>
<path d="M1482 373 c-6 -2 -9 -9 -6 -15 3 -5 0 -9 -7 -7 -25 3 -39 -1 -39 -10
0 -5 12 -8 26 -5 18 3 23 1 18 -7 -4 -8 -3 -9 5 -5 6 4 9 12 6 17 -4 5 -2 9 3
9 5 0 9 7 9 15 0 8 -1 15 -1 14 -1 0 -7 -3 -14 -6z"/>
<path d="M1518 363 c6 -2 9 -10 6 -15 -4 -7 -2 -8 5 -4 13 9 5 26 -12 25 -9 0
-8 -2 1 -6z"/>
<path d="M1110 319 c0 -4 6 -9 13 -12 8 -3 14 0 14 7 0 7 -6 13 -14 13 -7 0
-13 -4 -13 -8z"/>
</g>
</svg>
